<svg width="24" height="24" viewBox="0 0 24 24" fill="none" xmlns="http://www.w3.org/2000/svg">
<mask id="path-1-inside-1_5109_10312" fill="white">
<path fill-rule="evenodd" clip-rule="evenodd" d="M8.40166 2.10443C8.31294 2.1953 8.2993 2.50919 8.29735 4.51412C8.29547 6.38737 8.27761 6.85056 8.20221 6.98557C8.15116 7.07697 8.10837 7.31017 8.10707 7.50374C8.10525 7.79071 8.13428 7.8859 8.26423 8.01892C8.40263 8.16064 8.48258 8.18211 8.87114 8.18211C9.24665 8.18211 9.33848 8.20498 9.44233 8.32443C9.6117 8.51927 10.039 8.71065 10.3086 8.71244C10.5799 8.71424 11.07 8.48191 11.1606 8.30861C11.222 8.19115 11.314 8.18211 12.4483 8.18211C13.615 8.18211 13.6755 8.18849 13.7936 8.32443C13.963 8.51927 14.3903 8.71065 14.6599 8.71244C14.9253 8.71417 15.4213 8.48257 15.5285 8.30695C15.5925 8.20212 15.686 8.18211 16.1116 8.18211C16.5631 8.18211 16.6359 8.1643 16.7778 8.01892C16.9046 7.88922 16.9373 7.78765 16.9373 7.52355C16.9373 7.19896 16.8346 6.85262 16.7384 6.85262C16.7119 6.85262 16.6791 6.45624 16.6655 5.97184L16.6408 5.09106L16.1395 4.31311C15.5496 3.39742 15.5486 3.39689 14.4207 3.39636L13.69 3.39596V2.808C13.69 2.3228 13.6692 2.20082 13.5712 2.11002C13.4651 2.0117 13.1894 2 10.9781 2C8.81529 2 8.49089 2.01316 8.40166 2.10443ZM8.88413 4.65897V6.71968L9.16014 6.71941C9.32536 6.71921 9.56442 6.65254 9.75562 6.55322C10.1603 6.3431 10.4723 6.34316 10.8587 6.55349C11.1452 6.70937 11.2241 6.71968 12.1348 6.71968H13.1055V4.65897V2.59827H10.9948H8.88413V4.65897ZM13.69 5.35695C13.69 6.17033 13.7148 6.71968 13.7515 6.71968C13.7854 6.71968 13.9505 6.64489 14.1184 6.55349C14.2864 6.46209 14.532 6.3873 14.6642 6.3873C14.7964 6.3873 15.042 6.46209 15.21 6.55349C15.4039 6.65898 15.6208 6.71968 15.8042 6.71968H16.093V6.08817V5.45666H15.1875C14.0737 5.45666 14.0797 5.46138 14.0797 4.57767V3.99423H13.8849H13.69V5.35695ZM14.7075 4.03857C14.6837 4.0629 14.6642 4.25733 14.6642 4.47065V4.8584H15.2237H15.7832L15.6673 4.67559C15.2223 3.97349 15.2429 3.99423 14.9911 3.99423C14.859 3.99423 14.7313 4.01417 14.7075 4.03857ZM9.94636 7.14312C9.57267 7.47216 9.81959 8.11564 10.3195 8.11564C10.5955 8.11564 10.8325 7.85459 10.8325 7.5506C10.8325 7.0555 10.3158 6.81792 9.94636 7.14312ZM14.3041 7.1374C14.0614 7.35111 14.0614 7.75009 14.3041 7.96381C14.667 8.28322 15.1838 8.05541 15.1838 7.576C15.1838 7.06056 14.6779 6.80835 14.3041 7.1374ZM18.5482 7.15369C18.4846 7.29641 18.4947 7.34905 18.6147 7.50268C19.483 8.61373 20.0629 9.84383 20.3454 11.1735C20.4648 11.7357 20.5591 13.5009 20.4696 13.4987C20.4378 13.4979 20.3283 13.3765 20.2264 13.229C20.0679 12.9998 20.0114 12.9638 19.8367 12.9812C19.6618 12.9986 19.6302 13.0301 19.6165 13.2009C19.6036 13.3616 19.6923 13.5165 20.0726 13.998C20.3322 14.3267 20.5894 14.6045 20.644 14.6152C20.7398 14.6341 21.4555 14.1259 21.8243 13.7771C22.0131 13.5985 22.0546 13.3801 21.925 13.2475C21.8008 13.1204 21.6572 13.1533 21.416 13.3644C21.2923 13.4726 21.1735 13.5623 21.1518 13.5638C21.1303 13.5653 21.0964 13.1253 21.0766 12.586C21.0137 10.8738 20.5712 9.38716 19.7262 8.04916C19.0869 7.03689 18.7232 6.76049 18.5482 7.15369ZM5.2899 7.15196C4.97401 7.19882 4.68682 7.26669 4.65162 7.30272C4.61642 7.33875 4.5972 7.45415 4.60895 7.55911C4.63013 7.74896 4.63273 7.75003 5.06883 7.74471C5.49772 7.73959 5.50552 7.74252 5.42174 7.87766C4.26826 9.73774 3.75876 11.8972 4.01172 13.8534C4.10986 14.6124 4.22364 14.7886 4.49738 14.605C4.64662 14.5049 4.65617 14.4698 4.61272 14.1808C4.58661 14.0075 4.56616 13.3571 4.5672 12.7356C4.56882 11.7227 4.58752 11.5321 4.74742 10.8983C5.00369 9.88226 5.36043 9.02148 5.79043 8.38153L5.99143 8.0824L6.04248 8.44242C6.0706 8.64052 6.12587 8.8424 6.16542 8.89113C6.26972 9.01975 6.46014 8.99981 6.56301 8.84951C6.63828 8.73943 6.6386 8.61286 6.56515 8.0352C6.51735 7.65896 6.45026 7.28384 6.41617 7.20161C6.34324 7.02592 6.18503 7.01894 5.2899 7.15196ZM10.0924 7.39472C9.91792 7.64965 10.1684 7.93356 10.4377 7.78606C10.61 7.69166 10.6156 7.4126 10.4471 7.32027C10.2654 7.22076 10.2024 7.23399 10.0924 7.39472ZM14.4724 7.34753C14.3684 7.47569 14.4096 7.71892 14.5505 7.80939C14.8049 7.97258 15.0639 7.52056 14.8203 7.33829C14.67 7.22581 14.5689 7.22847 14.4724 7.34753ZM8.68929 7.45089C8.68929 7.55851 8.73261 7.58384 8.9166 7.58384C9.10059 7.58384 9.14391 7.55851 9.14391 7.45089C9.14391 7.34327 9.10059 7.31794 8.9166 7.31794C8.73261 7.31794 8.68929 7.34327 8.68929 7.45089ZM11.417 7.45089C11.417 7.57832 11.4603 7.58384 12.4561 7.58384C13.0276 7.58384 13.4952 7.57134 13.4952 7.55606C13.4952 7.54077 13.5129 7.48094 13.5346 7.42311C13.5696 7.32984 13.4523 7.31794 12.4955 7.31794C11.4603 7.31794 11.417 7.32326 11.417 7.45089ZM15.7803 7.43427C15.796 7.51916 15.8764 7.55612 16.0773 7.57101C16.3185 7.58896 16.3528 7.57447 16.3528 7.45468C16.3528 7.33662 16.3122 7.31794 16.0558 7.31794C15.8079 7.31794 15.7623 7.33722 15.7803 7.43427ZM11.9469 9.93092C11.9081 9.97871 11.8388 10.1357 11.7927 10.2799C11.6973 10.579 11.5115 10.6506 11.2736 10.48C11.0002 10.2839 10.772 10.3456 10.4308 10.7079C10.1013 11.0579 10.0467 11.2509 10.2134 11.4765C10.4313 11.7713 10.2816 12.1041 9.93117 12.1041C9.71854 12.1041 9.59852 12.356 9.59852 12.8021C9.59852 13.2921 9.70516 13.4706 10.0555 13.5672C10.2768 13.6281 10.3129 13.664 10.3129 13.8223C10.3129 13.9236 10.27 14.0645 10.2176 14.1355C10.0516 14.3601 10.1023 14.5521 10.4192 14.8989C10.7452 15.2555 11.0046 15.3272 11.2584 15.1308C11.5085 14.9372 11.8066 15.0806 11.8066 15.3945C11.8066 15.6534 12.0908 15.8267 12.5153 15.8267C12.9652 15.8267 13.1434 15.7112 13.2359 15.3595C13.3173 15.0501 13.5518 14.9404 13.7465 15.1208C13.8104 15.18 13.9638 15.2284 14.0876 15.2284C14.2671 15.2284 14.3662 15.1714 14.5787 14.9459C14.9321 14.571 14.9674 14.428 14.7871 14.0999C14.646 13.8427 14.6452 13.8312 14.7604 13.7008C14.8257 13.627 14.9292 13.5665 14.9902 13.5665C15.0513 13.5665 15.1783 13.5045 15.2724 13.4287C15.4269 13.3044 15.4435 13.2476 15.4435 12.8453C15.4435 12.3157 15.3464 12.1377 15.0238 12.0757C14.6936 12.0123 14.6243 11.8358 14.804 11.5163C14.9326 11.2876 14.9389 11.2379 14.8634 11.0513C14.8169 10.9365 14.6654 10.7375 14.5265 10.6092C14.2478 10.3514 14.0054 10.3101 13.7684 10.48C13.5305 10.6506 13.3447 10.579 13.2493 10.2799C13.1177 9.8677 13.0781 9.84397 12.521 9.84397C12.1855 9.84397 11.9939 9.87295 11.9469 9.93092ZM12.3031 10.5937C12.2005 11.0125 11.5832 11.2876 11.1541 11.1057C10.9844 11.0337 10.9387 11.0363 10.8544 11.1226C10.7769 11.2018 10.7706 11.2547 10.8261 11.3608C10.8653 11.4358 10.8974 11.6326 10.8974 11.7982C10.8974 12.0405 10.8579 12.1456 10.6954 12.335C10.5842 12.4646 10.4234 12.5886 10.3382 12.6104C10.0933 12.6734 10.1335 12.9195 10.4108 13.0548C10.8254 13.2572 11.0173 13.8228 10.821 14.2638C10.7589 14.4032 10.7627 14.4543 10.8413 14.5347C10.927 14.6224 10.9666 14.6215 11.188 14.5268C11.6297 14.338 12.1147 14.5469 12.3025 15.0069C12.4236 15.3036 12.6184 15.3036 12.7396 15.0069C12.9239 14.5553 13.4127 14.3381 13.8367 14.5194C14.0485 14.61 14.0784 14.6088 14.1692 14.5061C14.2555 14.4086 14.2573 14.3584 14.1824 14.1355C14.0322 13.6883 14.2422 13.2137 14.6706 13.032C14.9113 12.93 14.9337 12.6695 14.7069 12.6112C14.2861 12.5031 14.0232 11.9414 14.1781 11.4814C14.258 11.244 14.2579 11.1944 14.1774 11.112C14.1026 11.0355 14.0517 11.0322 13.9167 11.0952C13.499 11.29 12.9817 11.1086 12.7994 10.7034C12.7079 10.5001 12.6471 10.4453 12.5118 10.444C12.3867 10.4427 12.3302 10.4833 12.3031 10.5937ZM12.0134 11.2999C11.3678 11.5281 10.9612 12.1162 10.9638 12.818C10.9656 13.3139 11.1257 13.6678 11.5012 14.0061C12.1627 14.6021 12.9597 14.5746 13.6026 13.9335C14.0559 13.4815 14.1891 12.9419 14.01 12.282C13.9037 11.89 13.4093 11.4089 12.9801 11.2797C12.5384 11.1467 12.4409 11.1487 12.0134 11.2999ZM12.0927 11.8983C11.369 12.2347 11.3537 13.3488 12.0677 13.716C12.7229 14.0529 13.4952 13.5796 13.4952 12.8411C13.4952 12.4236 13.3161 12.1077 12.9748 11.923C12.6378 11.7405 12.4437 11.7351 12.0927 11.8983ZM2.12989 14.7631C2.00468 14.8912 2 14.9846 2 17.3532C2 19.7145 2.00487 19.8131 2.1256 19.8793C2.20659 19.9236 3.23356 19.9481 5.01337 19.9481C7.67772 19.9481 7.77786 19.9435 7.84274 19.8195C7.88359 19.7413 7.90996 19.0786 7.90996 18.1291C7.90996 16.798 7.89489 16.552 7.80793 16.4629C7.75175 16.4054 7.68603 16.3588 7.66181 16.3593C7.63752 16.3598 7.23778 16.4644 6.77343 16.5917C6.30907 16.7191 5.9109 16.8234 5.88856 16.8235C5.86622 16.8236 5.83115 16.7378 5.81063 16.6327C5.7901 16.5277 5.72477 16.4227 5.66541 16.3993C5.60605 16.376 5.18527 16.462 4.73034 16.5904C4.2754 16.7187 3.8695 16.8238 3.82832 16.8238C3.77533 16.8238 3.7535 16.5436 3.7535 15.8625C3.7535 14.6338 3.75091 14.6301 2.86448 14.6301C2.34635 14.6301 2.2412 14.6491 2.12989 14.7631ZM18.9802 14.9768C18.4449 15.088 18.0413 15.6087 18.0413 16.1878C18.0413 16.7234 18.3256 17.1817 18.7862 17.3888L18.9791 17.4755L18.6892 17.5555C18.2441 17.6781 17.9223 17.8698 17.5918 18.2092C17.235 18.5757 17.0271 18.9993 16.9467 19.5242C16.8793 19.9647 16.9364 20.2328 17.1468 20.4637C17.8899 21.2789 20.659 21.2828 21.3979 20.4697C21.6388 20.2046 21.6893 19.9787 21.6093 19.5245C21.4368 18.5448 20.7843 17.8098 19.8613 17.5555L19.5714 17.4755L19.7643 17.3915C20.2107 17.1972 20.5092 16.7163 20.5092 16.1917C20.5092 15.3869 19.7831 14.8099 18.9802 14.9768ZM2.5445 15.2578C2.46591 15.4674 2.56904 15.5608 2.87903 15.5608C3.16647 15.5608 3.17686 15.5539 3.15705 15.378C3.13867 15.2143 3.10757 15.193 2.85993 15.1747C2.65627 15.1596 2.57307 15.1815 2.5445 15.2578ZM19.0989 15.5426C18.8613 15.5869 18.6258 15.9319 18.6258 16.2357C18.6258 16.4435 18.6691 16.5459 18.8238 16.7042C19.0024 16.8871 19.0513 16.9034 19.3249 16.8718C19.5462 16.8463 19.6682 16.7891 19.7764 16.6604C20.1841 16.1753 19.7294 15.4252 19.0989 15.5426ZM2.51956 17.7544V19.4232L2.86052 19.4031L3.20148 19.383V17.7544V16.1258L2.86052 16.1057L2.51956 16.0856V17.7544ZM4.45166 17.2346L3.7535 17.4373V18.4268V19.4163H4.50037H5.24723V18.2197C5.24723 17.5616 5.22528 17.0251 5.19852 17.0275C5.17176 17.0299 4.83561 17.1231 4.45166 17.2346ZM6.83837 17.1544C6.62406 17.2198 6.30992 17.3106 6.14022 17.3563L5.83173 17.4393V18.4278V19.4163H6.5786H7.32546V18.2197C7.32546 17.5616 7.30351 17.026 7.27675 17.0294C7.24999 17.0328 7.05269 17.0891 6.83837 17.1544ZM3.94834 17.8874C3.94834 18.0818 3.96191 18.0939 4.15941 18.0744C4.3358 18.0569 4.37048 18.0263 4.37048 17.8874C4.37048 17.7484 4.3358 17.7178 4.15941 17.7004C3.96191 17.6808 3.94834 17.6929 3.94834 17.8874ZM4.66273 17.8874C4.66273 18.0646 4.68436 18.0868 4.85756 18.0868C5.03077 18.0868 5.0524 18.0646 5.0524 17.8874C5.0524 17.7101 5.03077 17.6879 4.85756 17.6879C4.68436 17.6879 4.66273 17.7101 4.66273 17.8874ZM6.02657 17.8874C6.02657 18.071 6.04462 18.0868 6.25387 18.0868C6.46312 18.0868 6.48118 18.071 6.48118 17.8874C6.48118 17.7038 6.46312 17.6879 6.25387 17.6879C6.04462 17.6879 6.02657 17.7038 6.02657 17.8874ZM6.74096 17.8874C6.74096 18.0646 6.76258 18.0868 6.93579 18.0868C7.109 18.0868 7.13062 18.0646 7.13062 17.8874C7.13062 17.7101 7.109 17.6879 6.93579 17.6879C6.76258 17.6879 6.74096 17.7101 6.74096 17.8874ZM18.5259 18.2441C17.9328 18.5268 17.3943 19.368 17.4685 19.8962C17.4971 20.1 17.9095 20.3226 18.4374 20.4192C19.3777 20.5912 20.8459 20.3643 21.0264 20.019C21.1744 19.736 20.8895 18.9549 20.4988 18.5725C19.9903 18.0748 19.1682 17.9379 18.5259 18.2441ZM9.45778 19.9869C9.07682 20.1529 8.74748 20.3355 8.72605 20.3926C8.70462 20.4499 8.82639 20.8294 8.99668 21.2361C9.26763 21.8833 9.32718 21.978 9.47422 21.9955C9.76822 22.0305 9.83148 21.8606 9.67126 21.4659C9.59482 21.2777 9.54293 21.1129 9.55592 21.0996C9.5689 21.0863 9.91584 21.1642 10.3269 21.2726C12.2893 21.7906 14.2022 21.6299 16.1045 20.7873C16.4134 20.6505 16.4886 20.4335 16.2853 20.265C16.1973 20.1921 16.0945 20.1604 16.0336 20.1877C15.4989 20.4269 14.6671 20.7147 14.1832 20.828C13.4021 21.0109 11.7007 21.0259 10.9558 20.8566C10.2712 20.7011 9.79335 20.5506 9.79335 20.4906C9.79335 20.4628 9.90298 20.4005 10.0369 20.3521C10.4768 20.1931 10.6074 19.993 10.4057 19.7866C10.2641 19.6417 10.2374 19.6473 9.45778 19.9869Z"/>
</mask>
<path fill-rule="evenodd" clip-rule="evenodd" d="M8.40166 2.10443C8.31294 2.1953 8.2993 2.50919 8.29735 4.51412C8.29547 6.38737 8.27761 6.85056 8.20221 6.98557C8.15116 7.07697 8.10837 7.31017 8.10707 7.50374C8.10525 7.79071 8.13428 7.8859 8.26423 8.01892C8.40263 8.16064 8.48258 8.18211 8.87114 8.18211C9.24665 8.18211 9.33848 8.20498 9.44233 8.32443C9.6117 8.51927 10.039 8.71065 10.3086 8.71244C10.5799 8.71424 11.07 8.48191 11.1606 8.30861C11.222 8.19115 11.314 8.18211 12.4483 8.18211C13.615 8.18211 13.6755 8.18849 13.7936 8.32443C13.963 8.51927 14.3903 8.71065 14.6599 8.71244C14.9253 8.71417 15.4213 8.48257 15.5285 8.30695C15.5925 8.20212 15.686 8.18211 16.1116 8.18211C16.5631 8.18211 16.6359 8.1643 16.7778 8.01892C16.9046 7.88922 16.9373 7.78765 16.9373 7.52355C16.9373 7.19896 16.8346 6.85262 16.7384 6.85262C16.7119 6.85262 16.6791 6.45624 16.6655 5.97184L16.6408 5.09106L16.1395 4.31311C15.5496 3.39742 15.5486 3.39689 14.4207 3.39636L13.69 3.39596V2.808C13.69 2.3228 13.6692 2.20082 13.5712 2.11002C13.4651 2.0117 13.1894 2 10.9781 2C8.81529 2 8.49089 2.01316 8.40166 2.10443ZM8.88413 4.65897V6.71968L9.16014 6.71941C9.32536 6.71921 9.56442 6.65254 9.75562 6.55322C10.1603 6.3431 10.4723 6.34316 10.8587 6.55349C11.1452 6.70937 11.2241 6.71968 12.1348 6.71968H13.1055V4.65897V2.59827H10.9948H8.88413V4.65897ZM13.69 5.35695C13.69 6.17033 13.7148 6.71968 13.7515 6.71968C13.7854 6.71968 13.9505 6.64489 14.1184 6.55349C14.2864 6.46209 14.532 6.3873 14.6642 6.3873C14.7964 6.3873 15.042 6.46209 15.21 6.55349C15.4039 6.65898 15.6208 6.71968 15.8042 6.71968H16.093V6.08817V5.45666H15.1875C14.0737 5.45666 14.0797 5.46138 14.0797 4.57767V3.99423H13.8849H13.69V5.35695ZM14.7075 4.03857C14.6837 4.0629 14.6642 4.25733 14.6642 4.47065V4.8584H15.2237H15.7832L15.6673 4.67559C15.2223 3.97349 15.2429 3.99423 14.9911 3.99423C14.859 3.99423 14.7313 4.01417 14.7075 4.03857ZM9.94636 7.14312C9.57267 7.47216 9.81959 8.11564 10.3195 8.11564C10.5955 8.11564 10.8325 7.85459 10.8325 7.5506C10.8325 7.0555 10.3158 6.81792 9.94636 7.14312ZM14.3041 7.1374C14.0614 7.35111 14.0614 7.75009 14.3041 7.96381C14.667 8.28322 15.1838 8.05541 15.1838 7.576C15.1838 7.06056 14.6779 6.80835 14.3041 7.1374ZM18.5482 7.15369C18.4846 7.29641 18.4947 7.34905 18.6147 7.50268C19.483 8.61373 20.0629 9.84383 20.3454 11.1735C20.4648 11.7357 20.5591 13.5009 20.4696 13.4987C20.4378 13.4979 20.3283 13.3765 20.2264 13.229C20.0679 12.9998 20.0114 12.9638 19.8367 12.9812C19.6618 12.9986 19.6302 13.0301 19.6165 13.2009C19.6036 13.3616 19.6923 13.5165 20.0726 13.998C20.3322 14.3267 20.5894 14.6045 20.644 14.6152C20.7398 14.6341 21.4555 14.1259 21.8243 13.7771C22.0131 13.5985 22.0546 13.3801 21.925 13.2475C21.8008 13.1204 21.6572 13.1533 21.416 13.3644C21.2923 13.4726 21.1735 13.5623 21.1518 13.5638C21.1303 13.5653 21.0964 13.1253 21.0766 12.586C21.0137 10.8738 20.5712 9.38716 19.7262 8.04916C19.0869 7.03689 18.7232 6.76049 18.5482 7.15369ZM5.2899 7.15196C4.97401 7.19882 4.68682 7.26669 4.65162 7.30272C4.61642 7.33875 4.5972 7.45415 4.60895 7.55911C4.63013 7.74896 4.63273 7.75003 5.06883 7.74471C5.49772 7.73959 5.50552 7.74252 5.42174 7.87766C4.26826 9.73774 3.75876 11.8972 4.01172 13.8534C4.10986 14.6124 4.22364 14.7886 4.49738 14.605C4.64662 14.5049 4.65617 14.4698 4.61272 14.1808C4.58661 14.0075 4.56616 13.3571 4.5672 12.7356C4.56882 11.7227 4.58752 11.5321 4.74742 10.8983C5.00369 9.88226 5.36043 9.02148 5.79043 8.38153L5.99143 8.0824L6.04248 8.44242C6.0706 8.64052 6.12587 8.8424 6.16542 8.89113C6.26972 9.01975 6.46014 8.99981 6.56301 8.84951C6.63828 8.73943 6.6386 8.61286 6.56515 8.0352C6.51735 7.65896 6.45026 7.28384 6.41617 7.20161C6.34324 7.02592 6.18503 7.01894 5.2899 7.15196ZM10.0924 7.39472C9.91792 7.64965 10.1684 7.93356 10.4377 7.78606C10.61 7.69166 10.6156 7.4126 10.4471 7.32027C10.2654 7.22076 10.2024 7.23399 10.0924 7.39472ZM14.4724 7.34753C14.3684 7.47569 14.4096 7.71892 14.5505 7.80939C14.8049 7.97258 15.0639 7.52056 14.8203 7.33829C14.67 7.22581 14.5689 7.22847 14.4724 7.34753ZM8.68929 7.45089C8.68929 7.55851 8.73261 7.58384 8.9166 7.58384C9.10059 7.58384 9.14391 7.55851 9.14391 7.45089C9.14391 7.34327 9.10059 7.31794 8.9166 7.31794C8.73261 7.31794 8.68929 7.34327 8.68929 7.45089ZM11.417 7.45089C11.417 7.57832 11.4603 7.58384 12.4561 7.58384C13.0276 7.58384 13.4952 7.57134 13.4952 7.55606C13.4952 7.54077 13.5129 7.48094 13.5346 7.42311C13.5696 7.32984 13.4523 7.31794 12.4955 7.31794C11.4603 7.31794 11.417 7.32326 11.417 7.45089ZM15.7803 7.43427C15.796 7.51916 15.8764 7.55612 16.0773 7.57101C16.3185 7.58896 16.3528 7.57447 16.3528 7.45468C16.3528 7.33662 16.3122 7.31794 16.0558 7.31794C15.8079 7.31794 15.7623 7.33722 15.7803 7.43427ZM11.9469 9.93092C11.9081 9.97871 11.8388 10.1357 11.7927 10.2799C11.6973 10.579 11.5115 10.6506 11.2736 10.48C11.0002 10.2839 10.772 10.3456 10.4308 10.7079C10.1013 11.0579 10.0467 11.2509 10.2134 11.4765C10.4313 11.7713 10.2816 12.1041 9.93117 12.1041C9.71854 12.1041 9.59852 12.356 9.59852 12.8021C9.59852 13.2921 9.70516 13.4706 10.0555 13.5672C10.2768 13.6281 10.3129 13.664 10.3129 13.8223C10.3129 13.9236 10.27 14.0645 10.2176 14.1355C10.0516 14.3601 10.1023 14.5521 10.4192 14.8989C10.7452 15.2555 11.0046 15.3272 11.2584 15.1308C11.5085 14.9372 11.8066 15.0806 11.8066 15.3945C11.8066 15.6534 12.0908 15.8267 12.5153 15.8267C12.9652 15.8267 13.1434 15.7112 13.2359 15.3595C13.3173 15.0501 13.5518 14.9404 13.7465 15.1208C13.8104 15.18 13.9638 15.2284 14.0876 15.2284C14.2671 15.2284 14.3662 15.1714 14.5787 14.9459C14.9321 14.571 14.9674 14.428 14.7871 14.0999C14.646 13.8427 14.6452 13.8312 14.7604 13.7008C14.8257 13.627 14.9292 13.5665 14.9902 13.5665C15.0513 13.5665 15.1783 13.5045 15.2724 13.4287C15.4269 13.3044 15.4435 13.2476 15.4435 12.8453C15.4435 12.3157 15.3464 12.1377 15.0238 12.0757C14.6936 12.0123 14.6243 11.8358 14.804 11.5163C14.9326 11.2876 14.9389 11.2379 14.8634 11.0513C14.8169 10.9365 14.6654 10.7375 14.5265 10.6092C14.2478 10.3514 14.0054 10.3101 13.7684 10.48C13.5305 10.6506 13.3447 10.579 13.2493 10.2799C13.1177 9.8677 13.0781 9.84397 12.521 9.84397C12.1855 9.84397 11.9939 9.87295 11.9469 9.93092ZM12.3031 10.5937C12.2005 11.0125 11.5832 11.2876 11.1541 11.1057C10.9844 11.0337 10.9387 11.0363 10.8544 11.1226C10.7769 11.2018 10.7706 11.2547 10.8261 11.3608C10.8653 11.4358 10.8974 11.6326 10.8974 11.7982C10.8974 12.0405 10.8579 12.1456 10.6954 12.335C10.5842 12.4646 10.4234 12.5886 10.3382 12.6104C10.0933 12.6734 10.1335 12.9195 10.4108 13.0548C10.8254 13.2572 11.0173 13.8228 10.821 14.2638C10.7589 14.4032 10.7627 14.4543 10.8413 14.5347C10.927 14.6224 10.9666 14.6215 11.188 14.5268C11.6297 14.338 12.1147 14.5469 12.3025 15.0069C12.4236 15.3036 12.6184 15.3036 12.7396 15.0069C12.9239 14.5553 13.4127 14.3381 13.8367 14.5194C14.0485 14.61 14.0784 14.6088 14.1692 14.5061C14.2555 14.4086 14.2573 14.3584 14.1824 14.1355C14.0322 13.6883 14.2422 13.2137 14.6706 13.032C14.9113 12.93 14.9337 12.6695 14.7069 12.6112C14.2861 12.5031 14.0232 11.9414 14.1781 11.4814C14.258 11.244 14.2579 11.1944 14.1774 11.112C14.1026 11.0355 14.0517 11.0322 13.9167 11.0952C13.499 11.29 12.9817 11.1086 12.7994 10.7034C12.7079 10.5001 12.6471 10.4453 12.5118 10.444C12.3867 10.4427 12.3302 10.4833 12.3031 10.5937ZM12.0134 11.2999C11.3678 11.5281 10.9612 12.1162 10.9638 12.818C10.9656 13.3139 11.1257 13.6678 11.5012 14.0061C12.1627 14.6021 12.9597 14.5746 13.6026 13.9335C14.0559 13.4815 14.1891 12.9419 14.01 12.282C13.9037 11.89 13.4093 11.4089 12.9801 11.2797C12.5384 11.1467 12.4409 11.1487 12.0134 11.2999ZM12.0927 11.8983C11.369 12.2347 11.3537 13.3488 12.0677 13.716C12.7229 14.0529 13.4952 13.5796 13.4952 12.8411C13.4952 12.4236 13.3161 12.1077 12.9748 11.923C12.6378 11.7405 12.4437 11.7351 12.0927 11.8983ZM2.12989 14.7631C2.00468 14.8912 2 14.9846 2 17.3532C2 19.7145 2.00487 19.8131 2.1256 19.8793C2.20659 19.9236 3.23356 19.9481 5.01337 19.9481C7.67772 19.9481 7.77786 19.9435 7.84274 19.8195C7.88359 19.7413 7.90996 19.0786 7.90996 18.1291C7.90996 16.798 7.89489 16.552 7.80793 16.4629C7.75175 16.4054 7.68603 16.3588 7.66181 16.3593C7.63752 16.3598 7.23778 16.4644 6.77343 16.5917C6.30907 16.7191 5.9109 16.8234 5.88856 16.8235C5.86622 16.8236 5.83115 16.7378 5.81063 16.6327C5.7901 16.5277 5.72477 16.4227 5.66541 16.3993C5.60605 16.376 5.18527 16.462 4.73034 16.5904C4.2754 16.7187 3.8695 16.8238 3.82832 16.8238C3.77533 16.8238 3.7535 16.5436 3.7535 15.8625C3.7535 14.6338 3.75091 14.6301 2.86448 14.6301C2.34635 14.6301 2.2412 14.6491 2.12989 14.7631ZM18.9802 14.9768C18.4449 15.088 18.0413 15.6087 18.0413 16.1878C18.0413 16.7234 18.3256 17.1817 18.7862 17.3888L18.9791 17.4755L18.6892 17.5555C18.2441 17.6781 17.9223 17.8698 17.5918 18.2092C17.235 18.5757 17.0271 18.9993 16.9467 19.5242C16.8793 19.9647 16.9364 20.2328 17.1468 20.4637C17.8899 21.2789 20.659 21.2828 21.3979 20.4697C21.6388 20.2046 21.6893 19.9787 21.6093 19.5245C21.4368 18.5448 20.7843 17.8098 19.8613 17.5555L19.5714 17.4755L19.7643 17.3915C20.2107 17.1972 20.5092 16.7163 20.5092 16.1917C20.5092 15.3869 19.7831 14.8099 18.9802 14.9768ZM2.5445 15.2578C2.46591 15.4674 2.56904 15.5608 2.87903 15.5608C3.16647 15.5608 3.17686 15.5539 3.15705 15.378C3.13867 15.2143 3.10757 15.193 2.85993 15.1747C2.65627 15.1596 2.57307 15.1815 2.5445 15.2578ZM19.0989 15.5426C18.8613 15.5869 18.6258 15.9319 18.6258 16.2357C18.6258 16.4435 18.6691 16.5459 18.8238 16.7042C19.0024 16.8871 19.0513 16.9034 19.3249 16.8718C19.5462 16.8463 19.6682 16.7891 19.7764 16.6604C20.1841 16.1753 19.7294 15.4252 19.0989 15.5426ZM2.51956 17.7544V19.4232L2.86052 19.4031L3.20148 19.383V17.7544V16.1258L2.86052 16.1057L2.51956 16.0856V17.7544ZM4.45166 17.2346L3.7535 17.4373V18.4268V19.4163H4.50037H5.24723V18.2197C5.24723 17.5616 5.22528 17.0251 5.19852 17.0275C5.17176 17.0299 4.83561 17.1231 4.45166 17.2346ZM6.83837 17.1544C6.62406 17.2198 6.30992 17.3106 6.14022 17.3563L5.83173 17.4393V18.4278V19.4163H6.5786H7.32546V18.2197C7.32546 17.5616 7.30351 17.026 7.27675 17.0294C7.24999 17.0328 7.05269 17.0891 6.83837 17.1544ZM3.94834 17.8874C3.94834 18.0818 3.96191 18.0939 4.15941 18.0744C4.3358 18.0569 4.37048 18.0263 4.37048 17.8874C4.37048 17.7484 4.3358 17.7178 4.15941 17.7004C3.96191 17.6808 3.94834 17.6929 3.94834 17.8874ZM4.66273 17.8874C4.66273 18.0646 4.68436 18.0868 4.85756 18.0868C5.03077 18.0868 5.0524 18.0646 5.0524 17.8874C5.0524 17.7101 5.03077 17.6879 4.85756 17.6879C4.68436 17.6879 4.66273 17.7101 4.66273 17.8874ZM6.02657 17.8874C6.02657 18.071 6.04462 18.0868 6.25387 18.0868C6.46312 18.0868 6.48118 18.071 6.48118 17.8874C6.48118 17.7038 6.46312 17.6879 6.25387 17.6879C6.04462 17.6879 6.02657 17.7038 6.02657 17.8874ZM6.74096 17.8874C6.74096 18.0646 6.76258 18.0868 6.93579 18.0868C7.109 18.0868 7.13062 18.0646 7.13062 17.8874C7.13062 17.7101 7.109 17.6879 6.93579 17.6879C6.76258 17.6879 6.74096 17.7101 6.74096 17.8874ZM18.5259 18.2441C17.9328 18.5268 17.3943 19.368 17.4685 19.8962C17.4971 20.1 17.9095 20.3226 18.4374 20.4192C19.3777 20.5912 20.8459 20.3643 21.0264 20.019C21.1744 19.736 20.8895 18.9549 20.4988 18.5725C19.9903 18.0748 19.1682 17.9379 18.5259 18.2441ZM9.45778 19.9869C9.07682 20.1529 8.74748 20.3355 8.72605 20.3926C8.70462 20.4499 8.82639 20.8294 8.99668 21.2361C9.26763 21.8833 9.32718 21.978 9.47422 21.9955C9.76822 22.0305 9.83148 21.8606 9.67126 21.4659C9.59482 21.2777 9.54293 21.1129 9.55592 21.0996C9.5689 21.0863 9.91584 21.1642 10.3269 21.2726C12.2893 21.7906 14.2022 21.6299 16.1045 20.7873C16.4134 20.6505 16.4886 20.4335 16.2853 20.265C16.1973 20.1921 16.0945 20.1604 16.0336 20.1877C15.4989 20.4269 14.6671 20.7147 14.1832 20.828C13.4021 21.0109 11.7007 21.0259 10.9558 20.8566C10.2712 20.7011 9.79335 20.5506 9.79335 20.4906C9.79335 20.4628 9.90298 20.4005 10.0369 20.3521C10.4768 20.1931 10.6074 19.993 10.4057 19.7866C10.2641 19.6417 10.2374 19.6473 9.45778 19.9869Z" fill="#F4F4F4" stroke="#0E0E0E" stroke-width="2" mask="url(#path-1-inside-1_5109_10312)"/>
</svg>
