<svg width="24" height="24" viewBox="0 0 24 24" fill="none" xmlns="http://www.w3.org/2000/svg">
<mask id="path-1-outside-1_5109_10437" maskUnits="userSpaceOnUse" x="2" y="2" width="20" height="20" fill="black">
<rect fill="white" x="2" y="2" width="20" height="20"/>
<path fill-rule="evenodd" clip-rule="evenodd" d="M6.66105 3.113C6.13238 3.25557 5.96032 3.39557 4.52945 4.84761C3.39869 5.99507 3.25371 6.1749 3.13381 6.57872C3.016 6.97554 3 7.79793 3 13.4592V19.8891L3.19189 20.252C3.3232 20.5004 3.49859 20.6756 3.74781 20.8074L4.11192 21L8.90031 20.9785C13.3564 20.9585 13.695 20.9469 13.7806 20.8112C13.8477 20.7048 13.8477 20.6258 13.7806 20.5195C13.695 20.3838 13.3563 20.3722 8.89656 20.3522L4.10459 20.3307L3.88554 20.1117L3.66657 19.8926V13.4009C3.66657 7.15078 3.67257 6.89762 3.8273 6.59997C3.9157 6.42997 4.54378 5.74424 5.22293 5.07635C6.36085 3.95722 6.82045 3.59798 6.94943 3.72706C6.97692 3.75448 6.99942 4.40995 6.99942 5.18351C6.99942 6.56572 6.99592 6.59355 6.79487 6.79454C6.59981 6.98962 6.54282 6.99912 5.56171 6.99912C4.4982 6.99912 4.33314 7.04654 4.33314 7.35178C4.33314 7.57677 4.60985 7.64393 5.55913 7.64927C6.51791 7.6546 6.9511 7.56535 7.23739 7.30361C7.55126 7.01662 7.59625 6.78071 7.5865 5.47259C7.58142 4.79344 7.60142 4.10905 7.63091 3.9518L7.68457 3.66589H11.7644H15.8443L16.0879 3.90947L16.3314 4.15305V7.78143C16.3314 11.2834 16.337 11.4128 16.4925 11.4961C16.701 11.6076 16.7121 11.6063 16.8671 11.4514C16.982 11.3364 16.9979 10.8902 16.9975 7.80568C16.9972 5.75608 16.9628 4.16771 16.915 3.99555C16.8129 3.6279 16.3709 3.18949 15.9933 3.08116C15.5537 2.95508 7.14015 2.98375 6.66105 3.113ZM11.8487 5.4325C11.7937 5.4875 11.7487 5.5925 11.7487 5.66583C11.7487 5.96732 11.9134 5.99915 13.4706 5.99915C14.8899 5.99915 14.9982 5.98832 15.0787 5.83799C15.1902 5.6295 15.1889 5.61841 15.034 5.46342C14.9248 5.35426 14.6576 5.33251 13.4259 5.33251C12.3881 5.33251 11.919 5.36226 11.8487 5.4325ZM8.90764 7.18103C8.82507 7.33536 8.83782 7.38519 8.99197 7.51002C9.15753 7.6441 9.42307 7.6571 11.9987 7.6571C14.5743 7.6571 14.8399 7.6441 15.0054 7.51002C15.1596 7.38519 15.1723 7.33536 15.0898 7.18103C14.9924 6.9992 14.9908 6.99912 11.9987 6.99912C9.00663 6.99912 9.00496 6.9992 8.90764 7.18103ZM5.10778 9.56679C4.88639 9.59829 4.77966 9.87586 4.92264 10.0482C4.99946 10.1408 5.16677 10.1664 5.57521 10.1484C6.08114 10.1259 6.12671 10.1084 6.15246 9.92694C6.16779 9.81853 6.14288 9.69237 6.09722 9.6467C6.01381 9.56329 5.45156 9.51796 5.10778 9.56679ZM7.15573 9.60262C7.03275 9.64803 6.99525 9.72553 7.01467 9.89428L7.04108 10.124L11.0163 10.1457C14.8274 10.1664 14.995 10.1609 15.075 10.0114C15.1337 9.90169 15.1276 9.81311 15.0544 9.71312C14.9592 9.58287 14.6261 9.56954 11.1368 9.55579C9.03938 9.54745 7.24789 9.56854 7.15573 9.60262ZM4.97888 11.2556C4.81049 11.3537 4.78799 11.5872 4.93305 11.7323C5.03679 11.836 5.80334 11.8704 6.03439 11.7817C6.21903 11.7109 6.19937 11.3559 6.00507 11.2519C5.80001 11.1422 5.16977 11.1445 4.97888 11.2556ZM7.14523 11.2556C6.97684 11.3537 6.95434 11.5872 7.09941 11.7323C7.17431 11.8072 8.17642 11.8323 11.0959 11.8323H14.9924L15.0898 11.6504C15.1727 11.4955 15.1593 11.446 15.0001 11.3171C14.8255 11.1757 14.5649 11.1658 11.0521 11.1682C8.65293 11.1698 7.23822 11.2015 7.14523 11.2556ZM15.0852 12.9262C14.0561 13.1998 13.1656 13.464 13.1063 13.5132C12.9485 13.6442 12.9616 16.2672 13.1239 17.0405C13.4759 18.7172 14.7819 20.2217 16.3934 20.8067C17.0276 21.0369 17.2721 20.9977 18.2061 20.5154C19.7095 19.7394 20.8693 17.9658 20.9345 16.3436C20.9517 15.9148 20.9278 15.7953 20.8099 15.7191C20.548 15.5496 20.3788 15.7517 20.3163 16.3087C20.1822 17.5032 19.8007 18.2974 18.9539 19.1445C18.3082 19.7905 17.4412 20.2839 16.9583 20.28C16.3014 20.2749 15.0734 19.4107 14.4743 18.532C13.8101 17.5575 13.7166 17.1943 13.683 15.4572L13.654 13.9572L15.3165 13.5263L16.9788 13.0954L18.634 13.5297L20.2892 13.9639L20.3142 14.2939C20.3366 14.5878 20.5 14.8322 20.6741 14.8322C20.7079 14.8322 20.7944 14.7733 20.8665 14.7013C21.0291 14.5386 21.0493 13.6449 20.8932 13.5177C20.836 13.4711 19.9642 13.2175 18.956 12.9543C17.9478 12.6911 17.0855 12.4651 17.0396 12.4522C16.9938 12.4392 16.1144 12.6525 15.0852 12.9262ZM4.93647 12.9288C4.79874 13.0666 4.80549 13.2889 4.95105 13.4097C5.13569 13.563 6.00357 13.4897 6.11547 13.3114C6.18196 13.2055 6.18196 13.1257 6.11547 13.0198C6.00082 12.8372 5.09778 12.7675 4.93647 12.9288ZM7.09941 12.9323C6.94926 13.0824 6.97892 13.3154 7.16056 13.4127C7.37837 13.5292 11.7031 13.5292 11.9209 13.4127C12.1025 13.3154 12.1322 13.0824 11.982 12.9323C11.8394 12.7896 7.24205 12.7896 7.09941 12.9323ZM4.93639 14.5955C4.64393 14.888 4.95347 15.1655 5.57246 15.1655C5.97382 15.1655 6.19054 15.0083 6.15329 14.7442C6.12655 14.555 6.08605 14.5388 5.58213 14.5164C5.23201 14.5007 5.00313 14.5288 4.93639 14.5955ZM7.09941 14.5989C6.94926 14.749 6.97892 14.982 7.16056 15.0793C7.37837 15.1958 11.7031 15.1958 11.9209 15.0793C12.1025 14.982 12.1322 14.749 11.982 14.5989C11.8394 14.4562 7.24205 14.4562 7.09941 14.5989ZM16.7153 15.214C16.6874 15.2865 16.6647 15.5115 16.6647 15.714V16.0822H16.2647C15.8445 16.0822 15.6648 16.1855 15.6648 16.4272C15.6648 16.6291 15.8073 16.6971 16.2457 16.7046L16.623 16.7111L16.6474 17.1258C16.6699 17.505 16.8109 17.7488 17.008 17.7488C17.1871 17.7488 17.3313 17.4551 17.3313 17.0904C17.3313 16.7141 17.3429 16.6937 17.5604 16.6911C18.1565 16.6837 18.2377 16.6619 18.2907 16.4948C18.3772 16.2222 18.1895 16.0822 17.7377 16.0822H17.3313V15.7433C17.3313 15.557 17.2924 15.332 17.245 15.2434C17.141 15.049 16.7861 15.0294 16.7153 15.214ZM4.87456 16.3327C4.77474 16.6472 4.9698 16.7583 5.57521 16.7315L6.12455 16.7071V16.4571V16.2072L5.52722 16.1828C4.98338 16.1607 4.92489 16.1741 4.87456 16.3327ZM7.03192 16.2844C7.00625 16.3512 6.99842 16.4736 7.01434 16.5565C7.04158 16.6978 7.19781 16.7071 9.54189 16.7071H12.0404V16.4571V16.2072L9.55938 16.1851C7.44969 16.1663 7.07149 16.1812 7.03192 16.2844ZM5.02054 17.8347C4.81699 17.9165 4.77349 18.1558 4.93305 18.3154C5.03679 18.4192 5.80334 18.4535 6.03439 18.3648C6.21903 18.294 6.19937 17.939 6.00507 17.835C5.81059 17.7309 5.279 17.7308 5.02054 17.8347ZM7.14523 17.8414C6.97109 17.9398 6.95451 18.1911 7.11357 18.3231C7.19473 18.3905 7.97161 18.4115 9.80068 18.3958L12.3736 18.3738L12.4024 18.1701C12.4595 17.7649 12.3257 17.7442 9.70953 17.7519C8.28374 17.756 7.23122 17.7928 7.14523 17.8414Z"/>
</mask>
<path fill-rule="evenodd" clip-rule="evenodd" d="M6.66105 3.113C6.13238 3.25557 5.96032 3.39557 4.52945 4.84761C3.39869 5.99507 3.25371 6.1749 3.13381 6.57872C3.016 6.97554 3 7.79793 3 13.4592V19.8891L3.19189 20.252C3.3232 20.5004 3.49859 20.6756 3.74781 20.8074L4.11192 21L8.90031 20.9785C13.3564 20.9585 13.695 20.9469 13.7806 20.8112C13.8477 20.7048 13.8477 20.6258 13.7806 20.5195C13.695 20.3838 13.3563 20.3722 8.89656 20.3522L4.10459 20.3307L3.88554 20.1117L3.66657 19.8926V13.4009C3.66657 7.15078 3.67257 6.89762 3.8273 6.59997C3.9157 6.42997 4.54378 5.74424 5.22293 5.07635C6.36085 3.95722 6.82045 3.59798 6.94943 3.72706C6.97692 3.75448 6.99942 4.40995 6.99942 5.18351C6.99942 6.56572 6.99592 6.59355 6.79487 6.79454C6.59981 6.98962 6.54282 6.99912 5.56171 6.99912C4.4982 6.99912 4.33314 7.04654 4.33314 7.35178C4.33314 7.57677 4.60985 7.64393 5.55913 7.64927C6.51791 7.6546 6.9511 7.56535 7.23739 7.30361C7.55126 7.01662 7.59625 6.78071 7.5865 5.47259C7.58142 4.79344 7.60142 4.10905 7.63091 3.9518L7.68457 3.66589H11.7644H15.8443L16.0879 3.90947L16.3314 4.15305V7.78143C16.3314 11.2834 16.337 11.4128 16.4925 11.4961C16.701 11.6076 16.7121 11.6063 16.8671 11.4514C16.982 11.3364 16.9979 10.8902 16.9975 7.80568C16.9972 5.75608 16.9628 4.16771 16.915 3.99555C16.8129 3.6279 16.3709 3.18949 15.9933 3.08116C15.5537 2.95508 7.14015 2.98375 6.66105 3.113ZM11.8487 5.4325C11.7937 5.4875 11.7487 5.5925 11.7487 5.66583C11.7487 5.96732 11.9134 5.99915 13.4706 5.99915C14.8899 5.99915 14.9982 5.98832 15.0787 5.83799C15.1902 5.6295 15.1889 5.61841 15.034 5.46342C14.9248 5.35426 14.6576 5.33251 13.4259 5.33251C12.3881 5.33251 11.919 5.36226 11.8487 5.4325ZM8.90764 7.18103C8.82507 7.33536 8.83782 7.38519 8.99197 7.51002C9.15753 7.6441 9.42307 7.6571 11.9987 7.6571C14.5743 7.6571 14.8399 7.6441 15.0054 7.51002C15.1596 7.38519 15.1723 7.33536 15.0898 7.18103C14.9924 6.9992 14.9908 6.99912 11.9987 6.99912C9.00663 6.99912 9.00496 6.9992 8.90764 7.18103ZM5.10778 9.56679C4.88639 9.59829 4.77966 9.87586 4.92264 10.0482C4.99946 10.1408 5.16677 10.1664 5.57521 10.1484C6.08114 10.1259 6.12671 10.1084 6.15246 9.92694C6.16779 9.81853 6.14288 9.69237 6.09722 9.6467C6.01381 9.56329 5.45156 9.51796 5.10778 9.56679ZM7.15573 9.60262C7.03275 9.64803 6.99525 9.72553 7.01467 9.89428L7.04108 10.124L11.0163 10.1457C14.8274 10.1664 14.995 10.1609 15.075 10.0114C15.1337 9.90169 15.1276 9.81311 15.0544 9.71312C14.9592 9.58287 14.6261 9.56954 11.1368 9.55579C9.03938 9.54745 7.24789 9.56854 7.15573 9.60262ZM4.97888 11.2556C4.81049 11.3537 4.78799 11.5872 4.93305 11.7323C5.03679 11.836 5.80334 11.8704 6.03439 11.7817C6.21903 11.7109 6.19937 11.3559 6.00507 11.2519C5.80001 11.1422 5.16977 11.1445 4.97888 11.2556ZM7.14523 11.2556C6.97684 11.3537 6.95434 11.5872 7.09941 11.7323C7.17431 11.8072 8.17642 11.8323 11.0959 11.8323H14.9924L15.0898 11.6504C15.1727 11.4955 15.1593 11.446 15.0001 11.3171C14.8255 11.1757 14.5649 11.1658 11.0521 11.1682C8.65293 11.1698 7.23822 11.2015 7.14523 11.2556ZM15.0852 12.9262C14.0561 13.1998 13.1656 13.464 13.1063 13.5132C12.9485 13.6442 12.9616 16.2672 13.1239 17.0405C13.4759 18.7172 14.7819 20.2217 16.3934 20.8067C17.0276 21.0369 17.2721 20.9977 18.2061 20.5154C19.7095 19.7394 20.8693 17.9658 20.9345 16.3436C20.9517 15.9148 20.9278 15.7953 20.8099 15.7191C20.548 15.5496 20.3788 15.7517 20.3163 16.3087C20.1822 17.5032 19.8007 18.2974 18.9539 19.1445C18.3082 19.7905 17.4412 20.2839 16.9583 20.28C16.3014 20.2749 15.0734 19.4107 14.4743 18.532C13.8101 17.5575 13.7166 17.1943 13.683 15.4572L13.654 13.9572L15.3165 13.5263L16.9788 13.0954L18.634 13.5297L20.2892 13.9639L20.3142 14.2939C20.3366 14.5878 20.5 14.8322 20.6741 14.8322C20.7079 14.8322 20.7944 14.7733 20.8665 14.7013C21.0291 14.5386 21.0493 13.6449 20.8932 13.5177C20.836 13.4711 19.9642 13.2175 18.956 12.9543C17.9478 12.6911 17.0855 12.4651 17.0396 12.4522C16.9938 12.4392 16.1144 12.6525 15.0852 12.9262ZM4.93647 12.9288C4.79874 13.0666 4.80549 13.2889 4.95105 13.4097C5.13569 13.563 6.00357 13.4897 6.11547 13.3114C6.18196 13.2055 6.18196 13.1257 6.11547 13.0198C6.00082 12.8372 5.09778 12.7675 4.93647 12.9288ZM7.09941 12.9323C6.94926 13.0824 6.97892 13.3154 7.16056 13.4127C7.37837 13.5292 11.7031 13.5292 11.9209 13.4127C12.1025 13.3154 12.1322 13.0824 11.982 12.9323C11.8394 12.7896 7.24205 12.7896 7.09941 12.9323ZM4.93639 14.5955C4.64393 14.888 4.95347 15.1655 5.57246 15.1655C5.97382 15.1655 6.19054 15.0083 6.15329 14.7442C6.12655 14.555 6.08605 14.5388 5.58213 14.5164C5.23201 14.5007 5.00313 14.5288 4.93639 14.5955ZM7.09941 14.5989C6.94926 14.749 6.97892 14.982 7.16056 15.0793C7.37837 15.1958 11.7031 15.1958 11.9209 15.0793C12.1025 14.982 12.1322 14.749 11.982 14.5989C11.8394 14.4562 7.24205 14.4562 7.09941 14.5989ZM16.7153 15.214C16.6874 15.2865 16.6647 15.5115 16.6647 15.714V16.0822H16.2647C15.8445 16.0822 15.6648 16.1855 15.6648 16.4272C15.6648 16.6291 15.8073 16.6971 16.2457 16.7046L16.623 16.7111L16.6474 17.1258C16.6699 17.505 16.8109 17.7488 17.008 17.7488C17.1871 17.7488 17.3313 17.4551 17.3313 17.0904C17.3313 16.7141 17.3429 16.6937 17.5604 16.6911C18.1565 16.6837 18.2377 16.6619 18.2907 16.4948C18.3772 16.2222 18.1895 16.0822 17.7377 16.0822H17.3313V15.7433C17.3313 15.557 17.2924 15.332 17.245 15.2434C17.141 15.049 16.7861 15.0294 16.7153 15.214ZM4.87456 16.3327C4.77474 16.6472 4.9698 16.7583 5.57521 16.7315L6.12455 16.7071V16.4571V16.2072L5.52722 16.1828C4.98338 16.1607 4.92489 16.1741 4.87456 16.3327ZM7.03192 16.2844C7.00625 16.3512 6.99842 16.4736 7.01434 16.5565C7.04158 16.6978 7.19781 16.7071 9.54189 16.7071H12.0404V16.4571V16.2072L9.55938 16.1851C7.44969 16.1663 7.07149 16.1812 7.03192 16.2844ZM5.02054 17.8347C4.81699 17.9165 4.77349 18.1558 4.93305 18.3154C5.03679 18.4192 5.80334 18.4535 6.03439 18.3648C6.21903 18.294 6.19937 17.939 6.00507 17.835C5.81059 17.7309 5.279 17.7308 5.02054 17.8347ZM7.14523 17.8414C6.97109 17.9398 6.95451 18.1911 7.11357 18.3231C7.19473 18.3905 7.97161 18.4115 9.80068 18.3958L12.3736 18.3738L12.4024 18.1701C12.4595 17.7649 12.3257 17.7442 9.70953 17.7519C8.28374 17.756 7.23122 17.7928 7.14523 17.8414Z" fill="#0E0E0E"/>
<path fill-rule="evenodd" clip-rule="evenodd" d="M6.66105 3.113C6.13238 3.25557 5.96032 3.39557 4.52945 4.84761C3.39869 5.99507 3.25371 6.1749 3.13381 6.57872C3.016 6.97554 3 7.79793 3 13.4592V19.8891L3.19189 20.252C3.3232 20.5004 3.49859 20.6756 3.74781 20.8074L4.11192 21L8.90031 20.9785C13.3564 20.9585 13.695 20.9469 13.7806 20.8112C13.8477 20.7048 13.8477 20.6258 13.7806 20.5195C13.695 20.3838 13.3563 20.3722 8.89656 20.3522L4.10459 20.3307L3.88554 20.1117L3.66657 19.8926V13.4009C3.66657 7.15078 3.67257 6.89762 3.8273 6.59997C3.9157 6.42997 4.54378 5.74424 5.22293 5.07635C6.36085 3.95722 6.82045 3.59798 6.94943 3.72706C6.97692 3.75448 6.99942 4.40995 6.99942 5.18351C6.99942 6.56572 6.99592 6.59355 6.79487 6.79454C6.59981 6.98962 6.54282 6.99912 5.56171 6.99912C4.4982 6.99912 4.33314 7.04654 4.33314 7.35178C4.33314 7.57677 4.60985 7.64393 5.55913 7.64927C6.51791 7.6546 6.9511 7.56535 7.23739 7.30361C7.55126 7.01662 7.59625 6.78071 7.5865 5.47259C7.58142 4.79344 7.60142 4.10905 7.63091 3.9518L7.68457 3.66589H11.7644H15.8443L16.0879 3.90947L16.3314 4.15305V7.78143C16.3314 11.2834 16.337 11.4128 16.4925 11.4961C16.701 11.6076 16.7121 11.6063 16.8671 11.4514C16.982 11.3364 16.9979 10.8902 16.9975 7.80568C16.9972 5.75608 16.9628 4.16771 16.915 3.99555C16.8129 3.6279 16.3709 3.18949 15.9933 3.08116C15.5537 2.95508 7.14015 2.98375 6.66105 3.113ZM11.8487 5.4325C11.7937 5.4875 11.7487 5.5925 11.7487 5.66583C11.7487 5.96732 11.9134 5.99915 13.4706 5.99915C14.8899 5.99915 14.9982 5.98832 15.0787 5.83799C15.1902 5.6295 15.1889 5.61841 15.034 5.46342C14.9248 5.35426 14.6576 5.33251 13.4259 5.33251C12.3881 5.33251 11.919 5.36226 11.8487 5.4325ZM8.90764 7.18103C8.82507 7.33536 8.83782 7.38519 8.99197 7.51002C9.15753 7.6441 9.42307 7.6571 11.9987 7.6571C14.5743 7.6571 14.8399 7.6441 15.0054 7.51002C15.1596 7.38519 15.1723 7.33536 15.0898 7.18103C14.9924 6.9992 14.9908 6.99912 11.9987 6.99912C9.00663 6.99912 9.00496 6.9992 8.90764 7.18103ZM5.10778 9.56679C4.88639 9.59829 4.77966 9.87586 4.92264 10.0482C4.99946 10.1408 5.16677 10.1664 5.57521 10.1484C6.08114 10.1259 6.12671 10.1084 6.15246 9.92694C6.16779 9.81853 6.14288 9.69237 6.09722 9.6467C6.01381 9.56329 5.45156 9.51796 5.10778 9.56679ZM7.15573 9.60262C7.03275 9.64803 6.99525 9.72553 7.01467 9.89428L7.04108 10.124L11.0163 10.1457C14.8274 10.1664 14.995 10.1609 15.075 10.0114C15.1337 9.90169 15.1276 9.81311 15.0544 9.71312C14.9592 9.58287 14.6261 9.56954 11.1368 9.55579C9.03938 9.54745 7.24789 9.56854 7.15573 9.60262ZM4.97888 11.2556C4.81049 11.3537 4.78799 11.5872 4.93305 11.7323C5.03679 11.836 5.80334 11.8704 6.03439 11.7817C6.21903 11.7109 6.19937 11.3559 6.00507 11.2519C5.80001 11.1422 5.16977 11.1445 4.97888 11.2556ZM7.14523 11.2556C6.97684 11.3537 6.95434 11.5872 7.09941 11.7323C7.17431 11.8072 8.17642 11.8323 11.0959 11.8323H14.9924L15.0898 11.6504C15.1727 11.4955 15.1593 11.446 15.0001 11.3171C14.8255 11.1757 14.5649 11.1658 11.0521 11.1682C8.65293 11.1698 7.23822 11.2015 7.14523 11.2556ZM15.0852 12.9262C14.0561 13.1998 13.1656 13.464 13.1063 13.5132C12.9485 13.6442 12.9616 16.2672 13.1239 17.0405C13.4759 18.7172 14.7819 20.2217 16.3934 20.8067C17.0276 21.0369 17.2721 20.9977 18.2061 20.5154C19.7095 19.7394 20.8693 17.9658 20.9345 16.3436C20.9517 15.9148 20.9278 15.7953 20.8099 15.7191C20.548 15.5496 20.3788 15.7517 20.3163 16.3087C20.1822 17.5032 19.8007 18.2974 18.9539 19.1445C18.3082 19.7905 17.4412 20.2839 16.9583 20.28C16.3014 20.2749 15.0734 19.4107 14.4743 18.532C13.8101 17.5575 13.7166 17.1943 13.683 15.4572L13.654 13.9572L15.3165 13.5263L16.9788 13.0954L18.634 13.5297L20.2892 13.9639L20.3142 14.2939C20.3366 14.5878 20.5 14.8322 20.6741 14.8322C20.7079 14.8322 20.7944 14.7733 20.8665 14.7013C21.0291 14.5386 21.0493 13.6449 20.8932 13.5177C20.836 13.4711 19.9642 13.2175 18.956 12.9543C17.9478 12.6911 17.0855 12.4651 17.0396 12.4522C16.9938 12.4392 16.1144 12.6525 15.0852 12.9262ZM4.93647 12.9288C4.79874 13.0666 4.80549 13.2889 4.95105 13.4097C5.13569 13.563 6.00357 13.4897 6.11547 13.3114C6.18196 13.2055 6.18196 13.1257 6.11547 13.0198C6.00082 12.8372 5.09778 12.7675 4.93647 12.9288ZM7.09941 12.9323C6.94926 13.0824 6.97892 13.3154 7.16056 13.4127C7.37837 13.5292 11.7031 13.5292 11.9209 13.4127C12.1025 13.3154 12.1322 13.0824 11.982 12.9323C11.8394 12.7896 7.24205 12.7896 7.09941 12.9323ZM4.93639 14.5955C4.64393 14.888 4.95347 15.1655 5.57246 15.1655C5.97382 15.1655 6.19054 15.0083 6.15329 14.7442C6.12655 14.555 6.08605 14.5388 5.58213 14.5164C5.23201 14.5007 5.00313 14.5288 4.93639 14.5955ZM7.09941 14.5989C6.94926 14.749 6.97892 14.982 7.16056 15.0793C7.37837 15.1958 11.7031 15.1958 11.9209 15.0793C12.1025 14.982 12.1322 14.749 11.982 14.5989C11.8394 14.4562 7.24205 14.4562 7.09941 14.5989ZM16.7153 15.214C16.6874 15.2865 16.6647 15.5115 16.6647 15.714V16.0822H16.2647C15.8445 16.0822 15.6648 16.1855 15.6648 16.4272C15.6648 16.6291 15.8073 16.6971 16.2457 16.7046L16.623 16.7111L16.6474 17.1258C16.6699 17.505 16.8109 17.7488 17.008 17.7488C17.1871 17.7488 17.3313 17.4551 17.3313 17.0904C17.3313 16.7141 17.3429 16.6937 17.5604 16.6911C18.1565 16.6837 18.2377 16.6619 18.2907 16.4948C18.3772 16.2222 18.1895 16.0822 17.7377 16.0822H17.3313V15.7433C17.3313 15.557 17.2924 15.332 17.245 15.2434C17.141 15.049 16.7861 15.0294 16.7153 15.214ZM4.87456 16.3327C4.77474 16.6472 4.9698 16.7583 5.57521 16.7315L6.12455 16.7071V16.4571V16.2072L5.52722 16.1828C4.98338 16.1607 4.92489 16.1741 4.87456 16.3327ZM7.03192 16.2844C7.00625 16.3512 6.99842 16.4736 7.01434 16.5565C7.04158 16.6978 7.19781 16.7071 9.54189 16.7071H12.0404V16.4571V16.2072L9.55938 16.1851C7.44969 16.1663 7.07149 16.1812 7.03192 16.2844ZM5.02054 17.8347C4.81699 17.9165 4.77349 18.1558 4.93305 18.3154C5.03679 18.4192 5.80334 18.4535 6.03439 18.3648C6.21903 18.294 6.19937 17.939 6.00507 17.835C5.81059 17.7309 5.279 17.7308 5.02054 17.8347ZM7.14523 17.8414C6.97109 17.9398 6.95451 18.1911 7.11357 18.3231C7.19473 18.3905 7.97161 18.4115 9.80068 18.3958L12.3736 18.3738L12.4024 18.1701C12.4595 17.7649 12.3257 17.7442 9.70953 17.7519C8.28374 17.756 7.23122 17.7928 7.14523 17.8414Z" stroke="#0E0E0E" stroke-width="0.18" mask="url(#path-1-outside-1_5109_10437)"/>
</svg>
