<svg width="24" height="24" viewBox="0 0 24 24" fill="none" xmlns="http://www.w3.org/2000/svg">
<mask id="path-1-inside-1_5241_5565" fill="white">
<path fill-rule="evenodd" clip-rule="evenodd" d="M6.90786 2.06468C6.62114 2.13974 6.37408 2.28286 6.10703 2.52859C5.72198 2.88291 5.53658 3.31133 5.53658 3.84672C5.53658 4.35099 5.72839 4.8096 6.07689 5.13855L6.21863 5.27237L5.95392 5.40443C5.4224 5.66963 4.9513 6.10068 4.64165 6.60518C4.279 7.19604 4.10731 8.00057 4.28529 8.27504C4.44219 8.517 4.45158 8.51802 6.52083 8.51802H8.39433L8.37369 8.70448C8.34528 8.96128 8.44418 9.13883 8.68024 9.25487L8.8616 9.34402L12.0487 9.33338L15.2359 9.32274L15.3805 9.21522C15.5493 9.08984 15.6307 8.88827 15.6008 8.67045L15.5798 8.51802H17.4722C19.5277 8.51802 19.4992 8.52089 19.6795 8.29761C19.7902 8.16053 19.7911 7.85022 19.6821 7.43499C19.5242 6.83365 19.2163 6.3315 18.7386 5.89625C18.4807 5.66127 17.9088 5.29914 17.7957 5.29914C17.7652 5.29914 17.8359 5.19755 17.9527 5.07343C19.0533 3.90345 18.1907 2.00176 16.5595 2.00176C15.2426 2.00176 14.3218 3.27482 14.774 4.47032C14.8636 4.70726 15.1674 5.15461 15.2806 5.21628C15.3639 5.2617 15.3765 5.25078 15.028 5.43387C14.7259 5.59257 14.4653 5.78209 14.2483 6.00102C14.1152 6.13535 14.112 6.13621 14.0065 6.06987C13.9476 6.03289 13.7635 5.93723 13.5972 5.85727C13.431 5.77727 13.2888 5.70869 13.2813 5.7048C13.2738 5.70095 13.3409 5.63332 13.4304 5.55457C14.1546 4.91732 14.3033 3.76853 13.7661 2.96067C13.1662 2.05844 12.0213 1.74739 11.0332 2.21821C10.5732 2.43745 10.1252 2.95431 9.96934 3.44566C9.88003 3.72735 9.86274 4.25576 9.93307 4.55331C10.003 4.84909 10.2165 5.21997 10.4608 5.46998C10.5884 5.60054 10.6888 5.70845 10.684 5.70975C10.6419 5.72105 10.1189 5.98202 10.0019 6.05005L9.85262 6.13692L9.63458 5.93052C9.39232 5.70119 9.16384 5.54154 8.8616 5.39045C8.75077 5.33502 8.65372 5.28415 8.64594 5.2774C8.6382 5.27061 8.70728 5.18884 8.79954 5.09565C9.1775 4.71374 9.37793 4.08861 9.2895 3.56715C9.10395 2.47293 8.00266 1.77816 6.90786 2.06468ZM7.13799 2.6703C6.54203 2.8159 6.14254 3.35161 6.19103 3.94019C6.27607 4.97196 7.55868 5.41349 8.30755 4.66875C8.55171 4.42597 8.65263 4.14459 8.63055 3.76822C8.60322 3.3034 8.39114 2.98352 7.9794 2.78607C7.70155 2.65284 7.3867 2.60954 7.13799 2.6703ZM11.6379 2.68294C11.2088 2.78917 10.8581 3.07824 10.6605 3.48872C10.5705 3.67585 10.5543 3.76292 10.5543 4.06262C10.5543 4.37352 10.5684 4.4439 10.672 4.64932C10.8218 4.94656 11.0803 5.19822 11.3727 5.33173C11.571 5.42225 11.6544 5.43654 11.9851 5.43654C12.3158 5.43654 12.3993 5.42225 12.5976 5.33173C12.89 5.19822 13.1484 4.94656 13.2982 4.64932C13.4018 4.44383 13.4159 4.3736 13.4159 4.06192C13.4159 3.74125 13.4034 3.68335 13.2836 3.44625C12.9812 2.84742 12.2824 2.52337 11.6379 2.68294ZM16.2868 2.67042C15.562 2.84691 15.1554 3.56853 15.395 4.25328C15.4837 4.50691 15.7991 4.83461 16.0595 4.94369C16.6561 5.19363 17.368 4.93573 17.6555 4.36543C17.7518 4.17458 17.7683 4.09434 17.7665 3.8271C17.7638 3.45171 17.6536 3.20389 17.3837 2.9664C17.0832 2.70198 16.644 2.58343 16.2868 2.67042ZM6.86659 5.7501C6.27542 5.87972 5.63456 6.30347 5.2965 6.78835C5.12746 7.03078 4.95746 7.39781 4.91349 7.61517C4.89822 7.69073 4.87678 7.78345 4.86585 7.82125C4.84715 7.88594 4.95319 7.88995 6.6926 7.88979L8.53918 7.88967L8.61475 7.70333C8.72248 7.43762 8.97985 7.0174 9.18548 6.77154L9.36189 6.56059L9.12684 6.34862C8.83053 6.08145 8.6137 5.9576 8.2124 5.82641C7.81553 5.69664 7.25532 5.66488 6.86659 5.7501ZM16.0154 5.75273C15.638 5.83167 15.132 6.08832 14.8468 6.34551L14.6044 6.56412L14.7323 6.70595C14.9391 6.93535 15.2361 7.40142 15.337 7.65473L15.4306 7.88995H17.2546H19.0785V7.79896C19.0785 7.74887 19.0495 7.61199 19.0142 7.49473C18.8212 6.85531 18.3124 6.26265 17.7068 5.97185C17.1613 5.70994 16.58 5.63461 16.0154 5.75273ZM11.3604 6.1786C10.2002 6.4371 9.22736 7.41799 9.06123 8.4969L9.03382 8.67504H11.9805C14.7728 8.67504 14.9272 8.67139 14.9272 8.60556C14.9272 8.477 14.7647 7.96324 14.6593 7.75888C14.2896 7.04158 13.6656 6.5116 12.8919 6.25774C12.4971 6.1282 11.758 6.09001 11.3604 6.1786ZM12.0053 9.54319C11.6556 9.59234 11.3386 9.7618 10.8425 10.1648L10.4052 10.52H8.43874H6.4723L6.44719 10.4226C6.41012 10.2787 6.19594 10.0594 6.04843 10.0143C5.69667 9.90689 4.03146 9.61381 3.91216 9.63835C3.70294 9.68145 3.53871 9.80176 3.44581 9.98002C3.3199 10.2216 1.97897 16.8615 2.00025 17.138C2.01839 17.3736 2.132 17.5498 2.32159 17.6362C2.49921 17.7172 4.20323 18.0569 4.43167 18.0569C4.71585 18.0569 4.95384 17.8999 5.05198 17.6475L5.09671 17.5326L7.28143 19.6571C9.76424 22.0714 9.67283 21.9998 10.2722 21.9998C10.5353 21.9998 10.6366 21.9808 10.8223 21.8969C11.1108 21.7666 11.3604 21.5243 11.4898 21.2491L11.5909 21.0342L11.9593 21.3852C12.1619 21.5783 12.4055 21.7747 12.5007 21.8217C13.1574 22.146 13.9382 21.9037 14.281 21.2692C14.3549 21.1325 14.4205 21.0144 14.4268 21.0068C14.4331 20.9993 14.4985 21.0364 14.5719 21.0892C14.7872 21.2441 15.0253 21.315 15.3307 21.315C16.0608 21.315 16.6403 20.7931 16.6667 20.1117L16.6731 19.9486L16.8984 19.9223C17.3704 19.8672 17.7818 19.5928 17.979 19.2016C18.0771 19.007 18.0915 18.9314 18.0951 18.5935L18.0992 18.2075L18.478 17.8367L18.8568 17.466L18.8919 17.6078C18.9385 17.7965 19.1578 18.0037 19.3695 18.0592C19.5207 18.0989 19.6489 18.0831 20.4883 17.9213C21.0096 17.8208 21.494 17.7209 21.5646 17.6993C21.7576 17.6402 21.9695 17.3901 21.9992 17.1865C22.0378 16.9223 20.6197 10.0706 20.4896 9.89264C20.3889 9.75486 20.129 9.61939 19.9626 9.61801C19.8427 9.61699 18.1128 9.95129 17.9224 10.0122C17.6507 10.0993 17.4235 10.4672 17.4761 10.7353C17.4919 10.8156 17.4741 10.8381 17.3699 10.8699C16.4252 11.1584 15.4898 11.0912 14.6353 10.6737C14.2384 10.4798 14.0664 10.3735 13.616 10.0439C13.0064 9.59764 12.574 9.46323 12.0053 9.54319ZM11.9496 10.2096C11.7426 10.2712 11.6961 10.3058 10.3072 11.432C9.03583 12.4629 8.88341 12.6115 8.88087 12.8223C8.88043 12.8622 9.02894 13.5628 9.21099 14.3792L9.54196 15.8634L9.6451 15.8387C9.70185 15.8251 9.82876 15.7684 9.9271 15.7126C10.5581 15.3548 10.7767 14.8801 10.9112 13.5751C10.9742 12.9639 11.0311 12.8279 11.2821 12.6895C11.6728 12.4739 12.3584 12.6822 13.1082 13.2442C13.2397 13.3427 14.3236 14.3865 15.5169 15.5638L17.6864 17.7041L18.1946 17.2102L18.7027 16.7164L18.2058 14.2954C17.9324 12.9638 17.69 11.7851 17.667 11.6761L17.6252 11.4779L17.2536 11.5699C16.5232 11.7507 15.658 11.7241 14.9549 11.4993C14.512 11.3577 13.8301 11.0016 13.4159 10.6957C12.8691 10.2919 12.6728 10.1974 12.3478 10.1817C12.2038 10.1748 12.0246 10.1873 11.9496 10.2096ZM3.96959 10.4383C3.7642 11.3798 2.59662 17.0907 2.60738 17.1012C2.62439 17.1178 4.19319 17.4197 4.34973 17.4365L4.4604 17.4484L5.15294 14.0393C5.6473 11.6057 5.83172 10.6251 5.79751 10.6123C5.77115 10.6025 5.35788 10.5188 4.8792 10.4265L4.00881 10.2585L3.96959 10.4383ZM18.9677 10.4491C18.3069 10.5779 18.1516 10.6204 18.152 10.672C18.1528 10.7814 19.5068 17.3879 19.5337 17.4142C19.5477 17.4279 19.9588 17.3627 20.4473 17.2694C21.1553 17.1342 21.3355 17.0873 21.3355 17.038C21.3355 17.0039 21.0272 15.4752 20.6503 13.6407C20.2735 11.8063 19.9652 10.3007 19.9652 10.295C19.9652 10.2651 19.7074 10.3049 18.9677 10.4491ZM5.82523 13.9613L5.24793 16.7745L7.57871 19.0449C9.25585 20.6787 9.94758 21.3276 10.0453 21.359C10.2249 21.4168 10.5175 21.3816 10.6496 21.2863C10.7967 21.1802 10.9303 20.979 10.9616 20.8162C11.0185 20.5209 10.9381 20.4013 10.1877 19.665C9.5445 19.0337 9.4863 18.9651 9.4863 18.8376C9.4863 18.6671 9.62221 18.5279 9.78882 18.5279C9.88732 18.5279 10.1171 18.7339 11.3177 19.8982C12.56 21.1028 12.7518 21.2738 12.9054 21.3137C13.4256 21.4488 13.8795 21.0281 13.7804 20.5027C13.7558 20.3722 13.5845 20.1893 12.4253 19.056C11.1767 17.8352 11.0984 17.7503 11.0984 17.6177C11.0984 17.4183 11.2121 17.2953 11.3965 17.2953C11.5366 17.2953 11.626 17.3753 13.2657 18.9685C14.7836 20.4433 15.0059 20.6449 15.1414 20.6691C15.7126 20.7713 16.1025 20.3916 15.9969 19.8356C15.9719 19.704 15.7718 19.4938 14.3395 18.0941C12.8117 16.6012 12.7106 16.4937 12.7106 16.364C12.7106 16.1841 12.8459 16.0549 13.0344 16.0549C13.1614 16.0549 13.2934 16.173 14.785 17.6208C15.6723 18.4821 16.4379 19.2063 16.4863 19.2302C16.6441 19.3083 16.9958 19.2838 17.1474 19.1843C17.3623 19.0433 17.4727 18.824 17.4545 18.5749L17.4392 18.3666L16.6173 17.5542C12.7858 13.7669 12.5415 13.5438 11.9845 13.3234C11.6001 13.1713 11.5976 13.1728 11.5657 13.5721C11.4263 15.3176 10.9364 16.0814 9.69677 16.4859C9.31135 16.6117 9.18028 16.6128 9.06751 16.4915C8.99114 16.4092 8.2369 13.0833 8.2369 12.8286C8.2369 12.4159 8.43854 12.1139 9.03785 11.6291C9.27149 11.4401 9.49969 11.2551 9.54499 11.2181C9.62309 11.1542 9.5439 11.1506 8.01495 11.1494L6.40254 11.1481L5.82523 13.9613Z"/>
</mask>
<path fill-rule="evenodd" clip-rule="evenodd" d="M6.90786 2.06468C6.62114 2.13974 6.37408 2.28286 6.10703 2.52859C5.72198 2.88291 5.53658 3.31133 5.53658 3.84672C5.53658 4.35099 5.72839 4.8096 6.07689 5.13855L6.21863 5.27237L5.95392 5.40443C5.4224 5.66963 4.9513 6.10068 4.64165 6.60518C4.279 7.19604 4.10731 8.00057 4.28529 8.27504C4.44219 8.517 4.45158 8.51802 6.52083 8.51802H8.39433L8.37369 8.70448C8.34528 8.96128 8.44418 9.13883 8.68024 9.25487L8.8616 9.34402L12.0487 9.33338L15.2359 9.32274L15.3805 9.21522C15.5493 9.08984 15.6307 8.88827 15.6008 8.67045L15.5798 8.51802H17.4722C19.5277 8.51802 19.4992 8.52089 19.6795 8.29761C19.7902 8.16053 19.7911 7.85022 19.6821 7.43499C19.5242 6.83365 19.2163 6.3315 18.7386 5.89625C18.4807 5.66127 17.9088 5.29914 17.7957 5.29914C17.7652 5.29914 17.8359 5.19755 17.9527 5.07343C19.0533 3.90345 18.1907 2.00176 16.5595 2.00176C15.2426 2.00176 14.3218 3.27482 14.774 4.47032C14.8636 4.70726 15.1674 5.15461 15.2806 5.21628C15.3639 5.2617 15.3765 5.25078 15.028 5.43387C14.7259 5.59257 14.4653 5.78209 14.2483 6.00102C14.1152 6.13535 14.112 6.13621 14.0065 6.06987C13.9476 6.03289 13.7635 5.93723 13.5972 5.85727C13.431 5.77727 13.2888 5.70869 13.2813 5.7048C13.2738 5.70095 13.3409 5.63332 13.4304 5.55457C14.1546 4.91732 14.3033 3.76853 13.7661 2.96067C13.1662 2.05844 12.0213 1.74739 11.0332 2.21821C10.5732 2.43745 10.1252 2.95431 9.96934 3.44566C9.88003 3.72735 9.86274 4.25576 9.93307 4.55331C10.003 4.84909 10.2165 5.21997 10.4608 5.46998C10.5884 5.60054 10.6888 5.70845 10.684 5.70975C10.6419 5.72105 10.1189 5.98202 10.0019 6.05005L9.85262 6.13692L9.63458 5.93052C9.39232 5.70119 9.16384 5.54154 8.8616 5.39045C8.75077 5.33502 8.65372 5.28415 8.64594 5.2774C8.6382 5.27061 8.70728 5.18884 8.79954 5.09565C9.1775 4.71374 9.37793 4.08861 9.2895 3.56715C9.10395 2.47293 8.00266 1.77816 6.90786 2.06468ZM7.13799 2.6703C6.54203 2.8159 6.14254 3.35161 6.19103 3.94019C6.27607 4.97196 7.55868 5.41349 8.30755 4.66875C8.55171 4.42597 8.65263 4.14459 8.63055 3.76822C8.60322 3.3034 8.39114 2.98352 7.9794 2.78607C7.70155 2.65284 7.3867 2.60954 7.13799 2.6703ZM11.6379 2.68294C11.2088 2.78917 10.8581 3.07824 10.6605 3.48872C10.5705 3.67585 10.5543 3.76292 10.5543 4.06262C10.5543 4.37352 10.5684 4.4439 10.672 4.64932C10.8218 4.94656 11.0803 5.19822 11.3727 5.33173C11.571 5.42225 11.6544 5.43654 11.9851 5.43654C12.3158 5.43654 12.3993 5.42225 12.5976 5.33173C12.89 5.19822 13.1484 4.94656 13.2982 4.64932C13.4018 4.44383 13.4159 4.3736 13.4159 4.06192C13.4159 3.74125 13.4034 3.68335 13.2836 3.44625C12.9812 2.84742 12.2824 2.52337 11.6379 2.68294ZM16.2868 2.67042C15.562 2.84691 15.1554 3.56853 15.395 4.25328C15.4837 4.50691 15.7991 4.83461 16.0595 4.94369C16.6561 5.19363 17.368 4.93573 17.6555 4.36543C17.7518 4.17458 17.7683 4.09434 17.7665 3.8271C17.7638 3.45171 17.6536 3.20389 17.3837 2.9664C17.0832 2.70198 16.644 2.58343 16.2868 2.67042ZM6.86659 5.7501C6.27542 5.87972 5.63456 6.30347 5.2965 6.78835C5.12746 7.03078 4.95746 7.39781 4.91349 7.61517C4.89822 7.69073 4.87678 7.78345 4.86585 7.82125C4.84715 7.88594 4.95319 7.88995 6.6926 7.88979L8.53918 7.88967L8.61475 7.70333C8.72248 7.43762 8.97985 7.0174 9.18548 6.77154L9.36189 6.56059L9.12684 6.34862C8.83053 6.08145 8.6137 5.9576 8.2124 5.82641C7.81553 5.69664 7.25532 5.66488 6.86659 5.7501ZM16.0154 5.75273C15.638 5.83167 15.132 6.08832 14.8468 6.34551L14.6044 6.56412L14.7323 6.70595C14.9391 6.93535 15.2361 7.40142 15.337 7.65473L15.4306 7.88995H17.2546H19.0785V7.79896C19.0785 7.74887 19.0495 7.61199 19.0142 7.49473C18.8212 6.85531 18.3124 6.26265 17.7068 5.97185C17.1613 5.70994 16.58 5.63461 16.0154 5.75273ZM11.3604 6.1786C10.2002 6.4371 9.22736 7.41799 9.06123 8.4969L9.03382 8.67504H11.9805C14.7728 8.67504 14.9272 8.67139 14.9272 8.60556C14.9272 8.477 14.7647 7.96324 14.6593 7.75888C14.2896 7.04158 13.6656 6.5116 12.8919 6.25774C12.4971 6.1282 11.758 6.09001 11.3604 6.1786ZM12.0053 9.54319C11.6556 9.59234 11.3386 9.7618 10.8425 10.1648L10.4052 10.52H8.43874H6.4723L6.44719 10.4226C6.41012 10.2787 6.19594 10.0594 6.04843 10.0143C5.69667 9.90689 4.03146 9.61381 3.91216 9.63835C3.70294 9.68145 3.53871 9.80176 3.44581 9.98002C3.3199 10.2216 1.97897 16.8615 2.00025 17.138C2.01839 17.3736 2.132 17.5498 2.32159 17.6362C2.49921 17.7172 4.20323 18.0569 4.43167 18.0569C4.71585 18.0569 4.95384 17.8999 5.05198 17.6475L5.09671 17.5326L7.28143 19.6571C9.76424 22.0714 9.67283 21.9998 10.2722 21.9998C10.5353 21.9998 10.6366 21.9808 10.8223 21.8969C11.1108 21.7666 11.3604 21.5243 11.4898 21.2491L11.5909 21.0342L11.9593 21.3852C12.1619 21.5783 12.4055 21.7747 12.5007 21.8217C13.1574 22.146 13.9382 21.9037 14.281 21.2692C14.3549 21.1325 14.4205 21.0144 14.4268 21.0068C14.4331 20.9993 14.4985 21.0364 14.5719 21.0892C14.7872 21.2441 15.0253 21.315 15.3307 21.315C16.0608 21.315 16.6403 20.7931 16.6667 20.1117L16.6731 19.9486L16.8984 19.9223C17.3704 19.8672 17.7818 19.5928 17.979 19.2016C18.0771 19.007 18.0915 18.9314 18.0951 18.5935L18.0992 18.2075L18.478 17.8367L18.8568 17.466L18.8919 17.6078C18.9385 17.7965 19.1578 18.0037 19.3695 18.0592C19.5207 18.0989 19.6489 18.0831 20.4883 17.9213C21.0096 17.8208 21.494 17.7209 21.5646 17.6993C21.7576 17.6402 21.9695 17.3901 21.9992 17.1865C22.0378 16.9223 20.6197 10.0706 20.4896 9.89264C20.3889 9.75486 20.129 9.61939 19.9626 9.61801C19.8427 9.61699 18.1128 9.95129 17.9224 10.0122C17.6507 10.0993 17.4235 10.4672 17.4761 10.7353C17.4919 10.8156 17.4741 10.8381 17.3699 10.8699C16.4252 11.1584 15.4898 11.0912 14.6353 10.6737C14.2384 10.4798 14.0664 10.3735 13.616 10.0439C13.0064 9.59764 12.574 9.46323 12.0053 9.54319ZM11.9496 10.2096C11.7426 10.2712 11.6961 10.3058 10.3072 11.432C9.03583 12.4629 8.88341 12.6115 8.88087 12.8223C8.88043 12.8622 9.02894 13.5628 9.21099 14.3792L9.54196 15.8634L9.6451 15.8387C9.70185 15.8251 9.82876 15.7684 9.9271 15.7126C10.5581 15.3548 10.7767 14.8801 10.9112 13.5751C10.9742 12.9639 11.0311 12.8279 11.2821 12.6895C11.6728 12.4739 12.3584 12.6822 13.1082 13.2442C13.2397 13.3427 14.3236 14.3865 15.5169 15.5638L17.6864 17.7041L18.1946 17.2102L18.7027 16.7164L18.2058 14.2954C17.9324 12.9638 17.69 11.7851 17.667 11.6761L17.6252 11.4779L17.2536 11.5699C16.5232 11.7507 15.658 11.7241 14.9549 11.4993C14.512 11.3577 13.8301 11.0016 13.4159 10.6957C12.8691 10.2919 12.6728 10.1974 12.3478 10.1817C12.2038 10.1748 12.0246 10.1873 11.9496 10.2096ZM3.96959 10.4383C3.7642 11.3798 2.59662 17.0907 2.60738 17.1012C2.62439 17.1178 4.19319 17.4197 4.34973 17.4365L4.4604 17.4484L5.15294 14.0393C5.6473 11.6057 5.83172 10.6251 5.79751 10.6123C5.77115 10.6025 5.35788 10.5188 4.8792 10.4265L4.00881 10.2585L3.96959 10.4383ZM18.9677 10.4491C18.3069 10.5779 18.1516 10.6204 18.152 10.672C18.1528 10.7814 19.5068 17.3879 19.5337 17.4142C19.5477 17.4279 19.9588 17.3627 20.4473 17.2694C21.1553 17.1342 21.3355 17.0873 21.3355 17.038C21.3355 17.0039 21.0272 15.4752 20.6503 13.6407C20.2735 11.8063 19.9652 10.3007 19.9652 10.295C19.9652 10.2651 19.7074 10.3049 18.9677 10.4491ZM5.82523 13.9613L5.24793 16.7745L7.57871 19.0449C9.25585 20.6787 9.94758 21.3276 10.0453 21.359C10.2249 21.4168 10.5175 21.3816 10.6496 21.2863C10.7967 21.1802 10.9303 20.979 10.9616 20.8162C11.0185 20.5209 10.9381 20.4013 10.1877 19.665C9.5445 19.0337 9.4863 18.9651 9.4863 18.8376C9.4863 18.6671 9.62221 18.5279 9.78882 18.5279C9.88732 18.5279 10.1171 18.7339 11.3177 19.8982C12.56 21.1028 12.7518 21.2738 12.9054 21.3137C13.4256 21.4488 13.8795 21.0281 13.7804 20.5027C13.7558 20.3722 13.5845 20.1893 12.4253 19.056C11.1767 17.8352 11.0984 17.7503 11.0984 17.6177C11.0984 17.4183 11.2121 17.2953 11.3965 17.2953C11.5366 17.2953 11.626 17.3753 13.2657 18.9685C14.7836 20.4433 15.0059 20.6449 15.1414 20.6691C15.7126 20.7713 16.1025 20.3916 15.9969 19.8356C15.9719 19.704 15.7718 19.4938 14.3395 18.0941C12.8117 16.6012 12.7106 16.4937 12.7106 16.364C12.7106 16.1841 12.8459 16.0549 13.0344 16.0549C13.1614 16.0549 13.2934 16.173 14.785 17.6208C15.6723 18.4821 16.4379 19.2063 16.4863 19.2302C16.6441 19.3083 16.9958 19.2838 17.1474 19.1843C17.3623 19.0433 17.4727 18.824 17.4545 18.5749L17.4392 18.3666L16.6173 17.5542C12.7858 13.7669 12.5415 13.5438 11.9845 13.3234C11.6001 13.1713 11.5976 13.1728 11.5657 13.5721C11.4263 15.3176 10.9364 16.0814 9.69677 16.4859C9.31135 16.6117 9.18028 16.6128 9.06751 16.4915C8.99114 16.4092 8.2369 13.0833 8.2369 12.8286C8.2369 12.4159 8.43854 12.1139 9.03785 11.6291C9.27149 11.4401 9.49969 11.2551 9.54499 11.2181C9.62309 11.1542 9.5439 11.1506 8.01495 11.1494L6.40254 11.1481L5.82523 13.9613Z" fill="#F4F4F4" stroke="#0E0E0E" stroke-width="2" mask="url(#path-1-inside-1_5241_5565)"/>
</svg>
