<svg width="32" height="23" viewBox="0 0 32 23" fill="none" xmlns="http://www.w3.org/2000/svg">
<path d="M30.7196 3.78853C30.4117 3.57048 30.0005 3.56605 29.689 3.77517L24.458 7.22194C24.2568 7.35633 24.1162 7.56544 24.0699 7.80305C24.0219 8.03975 24.0717 8.28629 24.207 8.48745C24.5078 8.936 24.6662 9.45928 24.6662 10.0013C24.6662 11.5088 23.4398 12.7352 21.9323 12.7352C20.4247 12.7352 19.1983 11.5088 19.1983 10.0013C19.1983 9.11486 19.6362 8.27918 20.3677 7.76478C20.7789 7.47644 20.8786 6.90863 20.5902 6.49659L16.2988 0.365756C15.9607 -0.121919 15.1455 -0.121919 14.8073 0.365756L10.5159 6.49665C10.2276 6.90869 10.3273 7.4765 10.7384 7.76484C11.47 8.27925 11.9078 9.11492 11.9078 10.0013C11.9078 11.5089 10.6814 12.7353 9.17388 12.7353C7.66633 12.7353 6.43994 11.5089 6.43994 10.0013C6.43994 9.45934 6.59833 8.93606 6.89918 8.48751C7.03448 8.28635 7.0843 8.03987 7.03624 7.80311C6.98995 7.5655 6.84936 7.35633 6.64821 7.222L1.41714 3.77523C1.10389 3.56611 0.694467 3.57054 0.386565 3.78859C0.0786619 4.00573 -0.0637462 4.38933 0.0270207 4.75422L4 21.5C4.11391 21.9592 4.55888 22.2662 5.0341 22.1781C12.7673 19.6648 19.4656 19.6648 26.6066 22.1781C26.6564 22.187 26.7081 22.1906 26.7561 22.1906C27.1673 22.1906 27.5375 21.9111 27.6408 21.5L31.0792 4.75422C31.1699 4.38927 31.0276 4.00567 30.7196 3.78853Z" fill="#E9C034"/>
</svg>
