<svg width="24" height="24" viewBox="0 0 24 24" fill="none" xmlns="http://www.w3.org/2000/svg">
<path d="M17.2103 16.0505C14.5884 17.6319 10.3387 17.6319 7.71907 16.0505M20.7693 8.58769L14.4422 3.66649C13.8869 3.23453 13.2035 3 12.5 3C11.7965 3 11.1131 3.23453 10.5579 3.66649L4.2296 8.58769C3.84929 8.88345 3.5416 9.2622 3.33001 9.69502C3.11843 10.1278 3.00856 10.6033 3.00879 11.0851V19.6272C3.00879 20.2565 3.25878 20.86 3.70377 21.305C4.14876 21.75 4.75229 22 5.3816 22H19.6185C20.2478 22 20.8513 21.75 21.2963 21.305C21.7413 20.86 21.9913 20.2565 21.9913 19.6272V11.0851C21.9913 10.1087 21.5404 9.18683 20.7693 8.58769Z" stroke="#0E0E0E" stroke-width="1.3" stroke-linecap="round" stroke-linejoin="round"/>
</svg>
