<svg width="44" height="44" viewBox="0 0 44 44" fill="none" xmlns="http://www.w3.org/2000/svg">
<circle cx="22" cy="22" r="22" fill="#E2FAFF" fill-opacity="0.2"/>
<path fill-rule="evenodd" clip-rule="evenodd" d="M20.1704 9.42717C18.8376 10.2724 18.2543 12.3467 18.8543 14.1075C19.3463 15.5515 20.8236 16.4834 22.1472 16.1849C23.991 15.7689 25.0621 13.5348 24.4414 11.3995C23.8378 9.32326 21.8105 8.38718 20.1704 9.42717ZM18.081 17.1877C16.9391 17.7061 15.459 19.3728 15.459 20.1403C15.459 20.2679 15.6477 20.5612 15.8785 20.792L16.2981 21.2115H18.7491H21.2001V22.7903C21.2001 24.0459 21.159 24.3691 20.9997 24.3691C20.7286 24.3691 19.9342 25.2928 19.8224 25.7379C19.7334 26.0924 19.7846 26.5338 19.9633 26.9529C20.0269 27.102 19.4372 27.7852 18.0492 29.1706L16.0432 31.1728L15.5309 30.9286C14.8586 30.6079 14.4791 30.6204 13.6409 30.9906C12.6882 31.4114 11.4573 31.4067 10.4742 30.9784C9.92847 30.7407 9.58674 30.677 9.22289 30.7451C8.46995 30.8865 7.0031 31.9486 6.46086 32.7452C5.88603 33.5898 5.85129 34.1506 6.34345 34.6428L6.70069 35L12.1691 34.9591L17.6375 34.9183L17.9117 34.5795C18.4066 33.968 18.1602 33.0927 17.2082 32.0801L16.8337 31.6818L18.7553 29.7562C20.3391 28.1693 20.721 27.8545 20.929 27.9657C21.272 28.1493 22.1576 28.1361 22.5203 27.942C22.7869 27.7994 23.0317 27.9979 24.9508 29.9138C26.1244 31.0856 27.0847 32.094 27.0847 32.1549C27.0847 32.2157 26.891 32.5331 26.6541 32.86C26.1252 33.5901 26.1 34.1619 26.5759 34.6377L26.9281 34.9901H32.3235H37.7188L38.071 34.6377C38.3068 34.4021 38.4234 34.1242 38.4234 33.7981C38.4234 32.653 36.2476 30.6982 34.9611 30.6874C34.7541 30.6857 34.2697 30.8246 33.8846 30.9963C32.9457 31.4147 31.7013 31.4147 30.7623 30.9963C29.8567 30.5926 29.6181 30.604 28.6436 31.0985L27.8342 31.509L25.68 29.3384L23.5257 27.1679L23.5908 26.3785C23.6699 25.4217 23.3348 24.7797 22.5646 24.4124L22.0613 24.1724V22.692V21.2115H24.4819C26.7134 21.2115 26.932 21.1882 27.2806 20.9139C28.2914 20.1191 27.2614 18.2326 25.2605 17.2134C24.5097 16.831 23.9926 16.8251 23.1892 17.1896C22.3518 17.5696 21.0115 17.5709 20.0519 17.1927C19.1528 16.8383 18.8523 16.8376 18.081 17.1877ZM10.9379 23.0206C9.95058 23.5599 9.25131 24.6309 9.06186 25.8939C8.7016 28.2961 10.7093 30.5072 12.7558 29.9621C13.5967 29.7381 14.622 28.6811 14.875 27.7773C15.3435 26.104 14.7887 24.1232 13.622 23.3031C12.8761 22.7789 11.6221 22.6469 10.9379 23.0206ZM31.0753 23.0832C29.9906 23.656 29.3967 24.8417 29.3889 26.4502C29.376 29.0808 31.5247 30.7796 33.5542 29.7433C34.7034 29.1566 35.5303 27.4439 35.344 26.0359C35.2295 25.171 34.8048 24.1502 34.3617 23.6751C33.5476 22.8023 32.1006 22.5417 31.0753 23.0832Z" fill="#E9C034"/>
</svg>
