<svg width="44" height="44" viewBox="0 0 44 44" fill="none" xmlns="http://www.w3.org/2000/svg">
<circle cx="22" cy="22" r="22" fill="#FFF9E2" fill-opacity="0.2"/>
<path d="M23.3431 26.2542L23.0911 24.8203H21.3088L21.0568 26.2542C20.7906 27.769 19.9789 29.0808 18.825 29.861C18.5234 30.0649 18.6484 30.599 18.9978 30.599H25.402C25.7514 30.599 25.8765 30.0649 25.5748 29.861C24.421 29.0808 23.6093 27.769 23.3431 26.2542Z" fill="url(#paint0_linear_5017_12223)"/>
<path d="M25.575 29.861C24.4212 29.0808 23.6095 27.769 23.3432 26.2542L23.0912 24.8203H22.2561L22.0041 26.2542C21.7379 27.769 20.9261 29.0808 19.7723 29.861C19.4706 30.0649 19.5957 30.599 19.9451 30.599H25.4021C25.7516 30.599 25.8767 30.0649 25.575 29.861Z" fill="url(#paint1_linear_5017_12223)"/>
<path d="M15.034 22.5564C11.7069 22.5564 9 19.8495 9 16.5223C9 13.1952 11.7069 10.4883 15.034 10.4883C18.3612 10.4883 21.0681 13.1952 21.0681 16.5223C21.0681 19.8495 18.3612 22.5564 15.034 22.5564ZM15.034 11.8976C12.484 11.8976 10.4093 13.9723 10.4093 16.5223C10.4093 19.0724 12.4839 21.1471 15.034 21.1471C17.5842 21.1471 19.6588 19.0724 19.6588 16.5223C19.6588 13.9723 17.5841 11.8976 15.034 11.8976Z" fill="url(#paint2_linear_5017_12223)"/>
<path d="M29.3661 22.5564C26.0389 22.5564 23.332 19.8495 23.332 16.5223C23.332 13.1952 26.0389 10.4883 29.3661 10.4883C32.6933 10.4883 35.4001 13.1952 35.4001 16.5223C35.4001 19.8495 32.6933 22.5564 29.3661 22.5564ZM29.3661 11.8976C26.816 11.8976 24.7414 13.9723 24.7414 16.5223C24.7414 19.0724 26.816 21.1471 29.3661 21.1471C31.9161 21.1471 33.9908 19.0724 33.9908 16.5223C33.9908 13.9723 31.9161 11.8976 29.3661 11.8976Z" fill="url(#paint3_linear_5017_12223)"/>
<path d="M32.0327 9.38189V9.38472L32.0264 9.43121C32.0264 9.4326 32.0257 9.43404 32.0257 9.43543L31.2868 15.2328C30.7771 19.2332 28.5709 22.7143 25.3612 24.5853C23.3805 25.7402 21.0184 25.7402 19.0377 24.5853C17.4329 23.6495 16.0787 22.312 15.0625 20.7075C14.0457 19.1036 13.3673 17.2327 13.1122 15.2329L12.3731 9.43543C12.3731 9.43404 12.3725 9.4326 12.3725 9.43121L12.3662 9.38472V9.38189C12.3662 8.6187 16.7684 8 22.1994 8C27.6305 8 32.0327 8.6187 32.0327 9.38189Z" fill="url(#paint4_linear_5017_12223)"/>
<path d="M28.3073 8.29688L27.6372 13.5535C27.1275 17.554 24.9214 21.0351 21.7116 22.906C20.485 23.6213 19.112 23.8931 17.7739 23.7224C18.1753 24.0375 18.5967 24.3261 19.0378 24.5833C21.0185 25.7383 23.3806 25.7383 25.3613 24.5833C28.5711 22.7124 30.7772 19.2313 31.2869 15.2308L32.0259 9.43344C32.0259 9.43205 32.0265 9.43061 32.0265 9.42922L32.0328 9.38273V9.3799C32.0328 8.94098 30.577 8.54999 28.3073 8.29688Z" fill="url(#paint5_linear_5017_12223)"/>
<path d="M30.4452 9.38189V9.38472L30.4399 9.43121C30.4399 9.4326 30.4394 9.43404 30.4394 9.43543L29.8197 15.2328C29.3924 19.2332 27.5426 22.7143 24.8512 24.5853C23.1904 25.7402 21.2098 25.7402 19.549 24.5853C18.2034 23.6495 17.0679 22.312 16.2158 20.7075C15.3632 19.1036 14.7944 17.2327 14.5805 15.2329L13.9609 9.43543C13.9609 9.43404 13.9604 9.4326 13.9604 9.43121L13.9551 9.38472V9.38189C13.9551 8.6187 17.6462 8 22.2001 8C26.754 8 30.4452 8.6187 30.4452 9.38189Z" fill="url(#paint6_linear_5017_12223)"/>
<path d="M32.2029 9.38189V9.38472C32.2029 9.4002 32.2004 9.41573 32.1965 9.43121C32.1965 9.4326 32.1959 9.43404 32.1959 9.43543C31.9922 10.1746 27.5947 10.7645 22.1994 10.7645C16.804 10.7645 12.4065 10.1746 12.2028 9.43543C12.2028 9.43404 12.2022 9.4326 12.2022 9.43121C12.1984 9.41573 12.1958 9.4002 12.1958 9.38472V9.38189C12.1958 8.6187 16.6742 8 22.1994 8C27.7245 8 32.2029 8.6187 32.2029 9.38189Z" fill="url(#paint7_radial_5017_12223)"/>
<path d="M30.8653 10.0739C29.1358 9.6608 25.903 9.38281 22.1997 9.38281C18.4965 9.38281 15.2637 9.6608 13.5342 10.0739C15.2638 10.4872 18.4967 10.765 22.1997 10.765C25.9028 10.765 29.1356 10.4872 30.8653 10.0739Z" fill="url(#paint8_linear_5017_12223)"/>
<path d="M22.1999 10.4223C17.5713 10.4223 13.6719 9.91294 12.4904 9.21812C12.3475 9.13405 12.1771 9.25992 12.1963 9.43489L12.3119 10.4894C12.3438 10.781 12.5177 11.0314 12.7679 11.1446C14.6281 11.9856 18.1551 12.5534 22.1999 12.5534C26.2447 12.5534 29.7716 11.9856 31.6318 11.1446C31.882 11.0315 32.056 10.7811 32.0879 10.4894L32.2034 9.43489C32.2226 9.25992 32.0523 9.13405 31.9093 9.21812C30.7278 9.91294 26.8284 10.4223 22.1999 10.4223Z" fill="url(#paint9_linear_5017_12223)"/>
<path d="M26.4469 35.2229H17.9531C17.5934 35.2229 17.3018 34.9313 17.3018 34.5716V30.788C17.3018 30.4283 17.5934 30.1367 17.9531 30.1367H26.4469C26.8066 30.1367 27.0982 30.4283 27.0982 30.788V34.5716C27.0982 34.9313 26.8066 35.2229 26.4469 35.2229Z" fill="url(#paint10_linear_5017_12223)"/>
<path d="M18.2493 30.6719C18.0215 30.6719 17.8369 30.8565 17.8369 31.0843V34.7414C17.8369 34.8831 17.866 35.0181 17.9184 35.1407C18.041 35.1931 18.176 35.2222 18.3177 35.2222H26.0808C26.6424 35.2222 27.0975 34.767 27.0975 34.2055V31.1528C27.0975 31.011 27.0684 30.876 27.016 30.7534C26.8934 30.701 26.7585 30.6719 26.6167 30.6719H18.2493V30.6719Z" fill="url(#paint11_linear_5017_12223)"/>
<path d="M26.4418 30.1367H25.5918C26.1533 30.1367 26.6085 30.5919 26.6085 31.1534V34.2062C26.6085 34.7677 26.1533 35.2229 25.5918 35.2229H26.0816C26.6432 35.2229 27.0983 34.7677 27.0983 34.2062V30.7933C27.0983 30.4307 26.8044 30.1367 26.4418 30.1367Z" fill="url(#paint12_linear_5017_12223)"/>
<path d="M27.0983 34.5714V32.5505L25.6113 31.0635C25.5752 31.0134 25.5167 30.9805 25.4503 30.9805H18.9499C18.84 30.9805 18.751 31.0695 18.751 31.1794V33.4939C18.751 33.5604 18.7839 33.6189 18.834 33.6549L20.4017 35.2227H26.447C26.8067 35.2227 27.0983 34.9311 27.0983 34.5714Z" fill="url(#paint13_linear_5017_12223)"/>
<path d="M27.8596 35.2214H16.5395C16.3507 35.2214 16.1978 35.0685 16.1978 34.8797C16.1978 34.547 16.4675 34.2773 16.8001 34.2773H27.599C27.9317 34.2773 28.2014 34.5471 28.2014 34.8797C28.2014 35.0685 28.0484 35.2214 27.8596 35.2214Z" fill="#555A66"/>
<path d="M25.4503 33.6928H18.9499C18.84 33.6928 18.751 33.6038 18.751 33.4939V31.1794C18.751 31.0695 18.84 30.9805 18.9499 30.9805H25.4503C25.5601 30.9805 25.6492 31.0695 25.6492 31.1794V33.4939C25.6492 33.6038 25.5601 33.6928 25.4503 33.6928Z" fill="url(#paint14_linear_5017_12223)"/>
<path d="M19.195 31.5482C19.2763 31.5482 19.3422 31.4823 19.3422 31.4011C19.3422 31.3198 19.2763 31.2539 19.195 31.2539C19.1137 31.2539 19.0479 31.3198 19.0479 31.4011C19.0479 31.4823 19.1137 31.5482 19.195 31.5482Z" fill="url(#paint15_linear_5017_12223)"/>
<path d="M25.2048 31.5482C25.2861 31.5482 25.3519 31.4823 25.3519 31.4011C25.3519 31.3198 25.2861 31.2539 25.2048 31.2539C25.1235 31.2539 25.0576 31.3198 25.0576 31.4011C25.0576 31.4823 25.1235 31.5482 25.2048 31.5482Z" fill="url(#paint16_linear_5017_12223)"/>
<path d="M19.195 33.4193C19.2763 33.4193 19.3422 33.3534 19.3422 33.2722C19.3422 33.1909 19.2763 33.125 19.195 33.125C19.1137 33.125 19.0479 33.1909 19.0479 33.2722C19.0479 33.3534 19.1137 33.4193 19.195 33.4193Z" fill="url(#paint17_linear_5017_12223)"/>
<path d="M25.2048 33.4193C25.2861 33.4193 25.3519 33.3534 25.3519 33.2722C25.3519 33.1909 25.2861 33.125 25.2048 33.125C25.1235 33.125 25.0576 33.1909 25.0576 33.2722C25.0576 33.3534 25.1235 33.4193 25.2048 33.4193Z" fill="url(#paint18_linear_5017_12223)"/>
<path d="M16.6068 12.4846C18.5179 11.7009 21.1601 13.7309 22.5085 17.0186C23.8568 20.3064 23.4006 23.6071 21.4895 24.3907C19.5784 25.1745 16.9362 23.1445 15.5879 19.8567C14.2396 16.5689 14.6958 13.2683 16.6068 12.4846Z" fill="url(#paint19_linear_5017_12223)"/>
<defs>
<linearGradient id="paint0_linear_5017_12223" x1="19.7735" y1="27.5894" x2="23.6409" y2="27.9577" gradientUnits="userSpaceOnUse">
<stop stop-color="#FFDA45"/>
<stop offset="1" stop-color="#FFA425"/>
</linearGradient>
<linearGradient id="paint1_linear_5017_12223" x1="23.8547" y1="27.7706" x2="20.3029" y2="32.1379" gradientUnits="userSpaceOnUse">
<stop stop-color="#FFDA45" stop-opacity="0"/>
<stop offset="1" stop-color="#FCEE21"/>
</linearGradient>
<linearGradient id="paint2_linear_5017_12223" x1="9" y1="16.5223" x2="21.0681" y2="16.5223" gradientUnits="userSpaceOnUse">
<stop stop-color="#FFDA45"/>
<stop offset="1" stop-color="#FFA425"/>
</linearGradient>
<linearGradient id="paint3_linear_5017_12223" x1="23.332" y1="16.5223" x2="35.4001" y2="16.5223" gradientUnits="userSpaceOnUse">
<stop stop-color="#FFDA45"/>
<stop offset="1" stop-color="#FFA425"/>
</linearGradient>
<linearGradient id="paint4_linear_5017_12223" x1="17.9358" y1="12.898" x2="33.7594" y2="21.2222" gradientUnits="userSpaceOnUse">
<stop stop-color="#FFDA45"/>
<stop offset="1" stop-color="#FFA425"/>
</linearGradient>
<linearGradient id="paint5_linear_5017_12223" x1="22.742" y1="16.6464" x2="35.9996" y2="17.9177" gradientUnits="userSpaceOnUse">
<stop stop-color="#FFDA45" stop-opacity="0"/>
<stop offset="1" stop-color="#B53759"/>
</linearGradient>
<linearGradient id="paint6_linear_5017_12223" x1="24.2974" y1="16.5561" x2="12.5407" y2="10.7548" gradientUnits="userSpaceOnUse">
<stop stop-color="#FFDA45" stop-opacity="0"/>
<stop offset="1" stop-color="#FCEE21"/>
</linearGradient>
<radialGradient id="paint7_radial_5017_12223" cx="0" cy="0" r="1" gradientUnits="userSpaceOnUse" gradientTransform="translate(22.1407 10.8202) scale(11.1865 2.12543)">
<stop stop-color="#FFA425"/>
<stop offset="0.3664" stop-color="#FFA727"/>
<stop offset="0.5929" stop-color="#FFAF2C"/>
<stop offset="0.7815" stop-color="#FFBE34"/>
<stop offset="0.9483" stop-color="#FFD240"/>
<stop offset="1" stop-color="#FFDA45"/>
</radialGradient>
<linearGradient id="paint8_linear_5017_12223" x1="22.1997" y1="11.454" x2="22.1997" y2="9.45968" gradientUnits="userSpaceOnUse">
<stop stop-color="#FFDA45"/>
<stop offset="1" stop-color="#FFA425"/>
</linearGradient>
<linearGradient id="paint9_linear_5017_12223" x1="22.2245" y1="9.94021" x2="22.4124" y2="13.9987" gradientUnits="userSpaceOnUse">
<stop stop-color="#FFDA45"/>
<stop offset="1" stop-color="#FFA425"/>
</linearGradient>
<linearGradient id="paint10_linear_5017_12223" x1="20.776" y1="29.8106" x2="24.0128" y2="36.3325" gradientUnits="userSpaceOnUse">
<stop stop-color="#7E8595"/>
<stop offset="1" stop-color="#555A66"/>
</linearGradient>
<linearGradient id="paint11_linear_5017_12223" x1="22.15" y1="32.7089" x2="14.8221" y2="27.2068" gradientUnits="userSpaceOnUse">
<stop stop-color="#BEC3D2" stop-opacity="0"/>
<stop offset="0.221" stop-color="#C5C9D7" stop-opacity="0.221"/>
<stop offset="0.5343" stop-color="#D7DAE3" stop-opacity="0.534"/>
<stop offset="0.9014" stop-color="#F6F6F8" stop-opacity="0.901"/>
<stop offset="1" stop-color="white"/>
</linearGradient>
<linearGradient id="paint12_linear_5017_12223" x1="25.3476" y1="30.9212" x2="27.2129" y2="34.6796" gradientUnits="userSpaceOnUse">
<stop stop-color="#7E8595"/>
<stop offset="1" stop-color="#555A66" stop-opacity="0"/>
</linearGradient>
<linearGradient id="paint13_linear_5017_12223" x1="24.1689" y1="36.6876" x2="22.2511" y2="31.0633" gradientUnits="userSpaceOnUse">
<stop stop-color="#555A66" stop-opacity="0"/>
<stop offset="1" stop-color="#555A66"/>
</linearGradient>
<linearGradient id="paint14_linear_5017_12223" x1="21.6188" y1="31.2545" x2="22.7539" y2="33.3676" gradientUnits="userSpaceOnUse">
<stop stop-color="#F9F7FC"/>
<stop offset="1" stop-color="#F0DDFC"/>
</linearGradient>
<linearGradient id="paint15_linear_5017_12223" x1="19.226" y1="31.4589" x2="19.1654" y2="31.346" gradientUnits="userSpaceOnUse">
<stop stop-color="#F9F7FC"/>
<stop offset="1" stop-color="#F0DDFC"/>
</linearGradient>
<linearGradient id="paint16_linear_5017_12223" x1="25.2358" y1="31.4589" x2="25.1752" y2="31.346" gradientUnits="userSpaceOnUse">
<stop stop-color="#F9F7FC"/>
<stop offset="1" stop-color="#F0DDFC"/>
</linearGradient>
<linearGradient id="paint17_linear_5017_12223" x1="19.226" y1="33.33" x2="19.1654" y2="33.2171" gradientUnits="userSpaceOnUse">
<stop stop-color="#F9F7FC"/>
<stop offset="1" stop-color="#F0DDFC"/>
</linearGradient>
<linearGradient id="paint18_linear_5017_12223" x1="25.2358" y1="33.33" x2="25.1752" y2="33.2171" gradientUnits="userSpaceOnUse">
<stop stop-color="#F9F7FC"/>
<stop offset="1" stop-color="#F0DDFC"/>
</linearGradient>
<linearGradient id="paint19_linear_5017_12223" x1="20.414" y1="17.4751" x2="13.5897" y2="22.3543" gradientUnits="userSpaceOnUse">
<stop stop-color="#FFDA45" stop-opacity="0"/>
<stop offset="1" stop-color="white"/>
</linearGradient>
</defs>
</svg>
