<svg width="187" height="223" viewBox="0 0 187 223" fill="none" xmlns="http://www.w3.org/2000/svg">
<path d="M183.528 208.551H5V57.5244L94.2426 0.855469L183.528 57.5244V208.551Z" fill="#847F3B"/>
<g opacity="0.2" filter="url(#filter0_d_4597_10090)">
<path d="M182.528 214.696H4V63.669L93.2426 7L182.528 63.669V214.696Z" fill="black"/>
</g>
<path d="M173.454 39.668H15V202.664H173.454V39.668Z" fill="#EBEBEB"/>
<path d="M30.4563 66.4414L159.543 66.4414V61.2262L30.4563 61.2262V66.4414Z" fill="#DBDBDB"/>
<path d="M30.4553 79.6211L159.542 79.6211V74.4059L30.4553 74.4059V79.6211Z" fill="#DBDBDB"/>
<path d="M30.4553 92.7891L159.542 92.7891V87.5739L30.4553 87.5739V92.7891Z" fill="#DBDBDB"/>
<path d="M30.4553 105.969L159.542 105.969V100.754L30.4553 100.754V105.969Z" fill="#DBDBDB"/>
<path d="M30.4553 119.152L159.542 119.152V113.937L30.4553 113.937V119.152Z" fill="#DBDBDB"/>
<path d="M30.4553 132.332L159.542 132.332V127.117L30.4553 127.117V132.332Z" fill="#DBDBDB"/>
<path d="M30.4553 145.5L159.542 145.5V140.285L30.4553 140.285V145.5Z" fill="#DBDBDB"/>
<path d="M30.4553 158.676L159.542 158.676V153.461L30.4553 153.461V158.676Z" fill="#DBDBDB"/>
<path d="M30.4553 171.848L159.542 171.848V166.632L30.4553 166.632V171.848Z" fill="#DBDBDB"/>
<path d="M30.4553 185.047L159.542 185.047V179.832L30.4553 179.832V185.047Z" fill="#DBDBDB"/>
<path d="M184 100V209H5V100C12.6863 104.184 20.2441 108.575 27.8447 112.855C35.431 117.218 43.0031 121.58 50.5322 126.026C58.9186 130.923 67.305 135.917 75.6628 140.938C75.7485 140.884 75.8485 140.829 75.9342 140.788C75.8485 140.842 75.8057 140.911 75.7199 140.966C81.9776 144.711 88.2495 148.484 94.5072 152.243C100.751 148.47 107.008 144.684 113.266 140.966C113.18 140.911 113.137 140.842 113.051 140.788C113.137 140.842 113.237 140.897 113.323 140.911C121.681 135.903 130.039 130.923 138.454 125.998C145.983 121.58 153.526 117.19 161.112 112.855C168.756 108.575 176.314 104.184 184 100Z" fill="#847F3B"/>
<g opacity="0.2">
<path d="M183.528 95.3307C176.318 100.403 168.965 105.248 161.712 110.235C154.388 115.109 147.05 119.996 139.669 124.812C131.974 129.856 124.251 134.844 116.528 139.802C116.286 139.959 116.072 140.13 115.83 140.287C108.99 144.661 102.137 149.022 95.2685 153.396L94.2568 154.009L93.2594 153.396C86.3913 149.022 79.5659 144.661 72.7263 140.258C72.4841 140.13 72.2418 139.959 71.9996 139.802C64.2481 134.844 56.525 129.856 48.8305 124.784C41.4779 119.982 34.1396 115.108 26.8155 110.221C19.5484 105.234 12.2101 100.389 5 95.3164C12.6661 99.6624 20.2039 104.222 27.7844 108.668C35.3507 113.199 42.9028 117.73 50.4121 122.347C58.7764 127.434 67.1406 132.621 75.4764 137.836C75.5049 137.836 75.5049 137.836 75.5334 137.864C81.7745 141.754 88.0299 145.673 94.2711 149.577C100.498 145.659 106.739 141.726 112.98 137.864C113.009 137.807 113.009 137.807 113.037 137.807C121.373 132.606 129.709 127.434 138.102 122.319C145.611 117.73 153.134 113.171 160.701 108.668C168.324 104.236 175.862 99.6767 183.528 95.3307Z" fill="black"/>
<path d="M75.7464 137.691C75.6609 137.748 75.6182 137.82 75.5327 137.877C74.5922 138.675 73.6518 139.487 72.7113 140.256C68.2371 144.032 63.6489 147.652 58.9894 151.171C53.304 155.517 47.4903 159.664 41.6481 163.796C35.7775 167.843 29.8783 171.861 23.8509 175.722C17.8235 179.584 11.7391 183.36 5.42676 186.823C10.8414 182.078 16.4699 177.66 22.1553 173.343C27.8692 168.997 33.6829 164.85 39.4965 160.718C45.3957 156.643 51.2948 152.625 57.3222 148.763C62.1242 145.685 66.9974 142.65 71.9846 139.815C73.1388 139.145 74.293 138.504 75.4757 137.862C75.5612 137.805 75.6752 137.748 75.7464 137.691Z" fill="black"/>
<path d="M183.1 186.838C176.802 183.376 170.689 179.6 164.676 175.738C158.649 171.877 152.75 167.858 146.851 163.812C141.008 159.679 135.195 155.533 129.509 151.187C124.864 147.681 120.29 144.076 115.83 140.3C114.861 139.502 113.921 138.69 112.995 137.892C112.909 137.835 112.866 137.764 112.781 137.707C112.866 137.764 112.966 137.821 113.051 137.835C114.234 138.505 115.388 139.146 116.543 139.816C121.53 142.652 126.374 145.687 131.205 148.764C137.232 152.626 143.132 156.644 149.002 160.719C154.844 164.852 160.658 168.998 166.343 173.344C172.043 177.662 177.686 182.093 183.1 186.838Z" fill="black"/>
</g>
<defs>
<filter id="filter0_d_4597_10090" x="0" y="7" width="186.528" height="215.695" filterUnits="userSpaceOnUse" color-interpolation-filters="sRGB">
<feFlood flood-opacity="0" result="BackgroundImageFix"/>
<feColorMatrix in="SourceAlpha" type="matrix" values="0 0 0 0 0 0 0 0 0 0 0 0 0 0 0 0 0 0 127 0" result="hardAlpha"/>
<feOffset dy="4"/>
<feGaussianBlur stdDeviation="2"/>
<feComposite in2="hardAlpha" operator="out"/>
<feColorMatrix type="matrix" values="0 0 0 0 0 0 0 0 0 0 0 0 0 0 0 0 0 0 0.25 0"/>
<feBlend mode="normal" in2="BackgroundImageFix" result="effect1_dropShadow_4597_10090"/>
<feBlend mode="normal" in="SourceGraphic" in2="effect1_dropShadow_4597_10090" result="shape"/>
</filter>
</defs>
</svg>