<svg width="24" height="24" viewBox="0 0 24 24" fill="none" xmlns="http://www.w3.org/2000/svg">
<path d="M14.9805 7.01562C14.9805 7.01562 15.4805 7.51562 15.9805 8.51562C15.9805 8.51562 17.5687 6.01562 18.9805 5.51562" stroke="#6554BE" stroke-width="1.5" stroke-linecap="round" stroke-linejoin="round"/>
<path d="M14.9805 7.01562C14.9805 7.01562 15.4805 7.51562 15.9805 8.51562C15.9805 8.51562 17.5687 6.01562 18.9805 5.51562" stroke="white" stroke-width="1.5" stroke-linecap="round" stroke-linejoin="round"/>
<path d="M9.99485 2.01945C7.49638 1.91367 5.56612 2.20149 5.56612 2.20149C4.34727 2.28864 2.01146 2.97196 2.01148 6.96265C2.0115 10.9194 1.98564 15.7974 2.01148 17.742C2.01148 18.9301 2.7471 21.7014 5.29326 21.8499C8.3881 22.0305 13.9627 22.0689 16.5204 21.8499C17.2051 21.8113 19.4846 21.2738 19.7731 18.7937C20.072 16.2244 20.0125 14.4388 20.0125 14.0138" stroke="#6554BE" stroke-width="1.5" stroke-linecap="round" stroke-linejoin="round"/>
<path d="M9.99485 2.01945C7.49638 1.91367 5.56612 2.20149 5.56612 2.20149C4.34727 2.28864 2.01146 2.97196 2.01148 6.96265C2.0115 10.9194 1.98564 15.7974 2.01148 17.742C2.01148 18.9301 2.7471 21.7014 5.29326 21.8499C8.3881 22.0305 13.9627 22.0689 16.5204 21.8499C17.2051 21.8113 19.4846 21.2738 19.7731 18.7937C20.072 16.2244 20.0125 14.4388 20.0125 14.0138" stroke="white" stroke-width="1.5" stroke-linecap="round" stroke-linejoin="round"/>
<path d="M21.9998 7.01562C21.9998 9.77705 19.7591 12.0157 16.995 12.0157C14.2309 12.0157 11.9902 9.77705 11.9902 7.01562C11.9902 4.2542 14.2309 2.01562 16.995 2.01562C19.7591 2.01562 21.9998 4.2542 21.9998 7.01562Z" stroke="#6554BE" stroke-width="1.5" stroke-linecap="round"/>
<path d="M21.9998 7.01562C21.9998 9.77705 19.7591 12.0157 16.995 12.0157C14.2309 12.0157 11.9902 9.77705 11.9902 7.01562C11.9902 4.2542 14.2309 2.01562 16.995 2.01562C19.7591 2.01562 21.9998 4.2542 21.9998 7.01562Z" stroke="white" stroke-width="1.5" stroke-linecap="round"/>
<path d="M6.98047 13.0156H10.9804" stroke="#6554BE" stroke-width="1.5" stroke-linecap="round"/>
<path d="M6.98047 13.0156H10.9804" stroke="white" stroke-width="1.5" stroke-linecap="round"/>
<path d="M6.98047 17.0156H14.9804" stroke="#6554BE" stroke-width="1.5" stroke-linecap="round"/>
<path d="M6.98047 17.0156H14.9804" stroke="white" stroke-width="1.5" stroke-linecap="round"/>
</svg>
