<svg width="24" height="24" viewBox="0 0 24 24" fill="none" xmlns="http://www.w3.org/2000/svg">
<mask id="path-1-inside-1_5109_10317" fill="white">
<path fill-rule="evenodd" clip-rule="evenodd" d="M10.7437 1.01992C10.3249 1.08646 9.82876 1.36776 9.583 1.67802C9.10056 2.28695 9.06278 3.2221 9.49514 3.85035C9.94351 4.50183 10.7733 4.79626 11.5127 4.56618C12.0499 4.39903 12.4113 4.08589 12.6512 3.57963C12.7784 3.31123 12.7874 3.26112 12.7874 2.81916C12.7874 2.37522 12.7788 2.3279 12.6485 2.05288C12.3092 1.33679 11.5025 0.899307 10.7437 1.01992ZM9.43138 5.67699C9.26573 5.72181 9.05383 5.79094 8.96051 5.83059C8.53378 6.01198 8.02539 6.46138 7.74461 6.90541C7.56928 7.18267 7.3909 7.7178 7.35863 8.06336L7.33324 8.33495L7.06158 8.36033C6.44137 8.41822 5.7937 8.73669 5.35816 9.19792C5.05031 9.52388 4.88027 9.80157 4.73377 10.2174L4.61253 10.5615V12.0025V13.4434L4.73356 13.7875C5.04769 14.6806 5.76669 15.3396 6.68244 15.5738C6.86491 15.6204 7.08576 15.6586 7.17319 15.6586H7.33221L7.35811 15.9359C7.44248 16.8391 8.02982 17.6945 8.84619 18.103C9.42359 18.3919 9.63231 18.4193 11.1352 18.4032C12.4343 18.3892 12.4454 18.3883 12.7778 18.2711C13.6822 17.9523 14.3392 17.2389 14.5741 16.3206C14.6208 16.1382 14.659 15.9174 14.659 15.83V15.671L14.9364 15.6451C15.8398 15.5608 16.6955 14.9736 17.1041 14.1575C17.3931 13.5802 17.4205 13.3716 17.4043 11.8691C17.3904 10.5684 17.3897 10.5598 17.2716 10.2248C16.9082 9.19457 15.9879 8.45797 14.942 8.36033L14.6704 8.33495L14.645 8.06336C14.5475 7.01961 13.8091 6.09465 12.7874 5.73627L12.4432 5.61557L11.0879 5.60551C9.87265 5.59652 9.70141 5.60391 9.43138 5.67699ZM9.66651 7.5183C9.40586 7.65444 9.21027 7.9163 9.16613 8.18815L9.14044 8.34635H10.5229H11.9053V9.24962V10.1529H9.52233H7.13933L6.90923 10.2731C6.74177 10.3605 6.64376 10.4504 6.54932 10.6029L6.4196 10.8126L6.4069 11.9581L6.39421 13.1036L6.51636 13.3374C6.65254 13.598 6.91448 13.7935 7.1864 13.8376L7.34464 13.8633V12.4812V11.0992H8.2468H9.14896L9.16109 13.5221L9.17323 15.945L9.30295 16.1547C9.39739 16.3074 9.49531 16.3972 9.66286 16.4847L9.89295 16.6049H11.0018H12.1107L12.3408 16.4847C12.5961 16.3513 12.783 16.0988 12.8327 15.8199L12.8615 15.6586H11.4799H10.0983V14.7553V13.852H12.4813H14.8643L15.0944 13.7319C15.2618 13.6444 15.3599 13.5546 15.4543 13.402L15.584 13.1923L15.5973 12.0479L15.6105 10.9035L15.4878 10.6687C15.351 10.4069 15.0897 10.2115 14.8172 10.1673L14.659 10.1416V11.5237V12.9057H13.7554H12.8519V10.5234V8.14109L12.7317 7.91105C12.6442 7.74365 12.5543 7.64566 12.4017 7.55125L12.192 7.42156L11.0462 7.40888L9.90035 7.39619L9.66651 7.5183ZM1.29957 10.2562C0.991678 10.3538 0.747724 10.5037 0.523992 10.7328C0.118993 11.1475 -0.077504 11.773 0.0282955 12.3107C0.144593 12.9017 0.526401 13.401 1.05256 13.6502C1.32405 13.7787 1.37288 13.7875 1.81587 13.7875C2.25796 13.7875 2.30808 13.7786 2.57656 13.6514C3.08297 13.4115 3.3962 13.0503 3.5634 12.5132C3.85459 11.5779 3.29728 10.5392 2.35662 10.2642C2.08018 10.1834 1.54215 10.1794 1.29957 10.2562ZM19.5888 10.284C18.0358 10.8326 17.9332 12.9439 19.4252 13.6505C19.6958 13.7787 19.745 13.7875 20.1877 13.7875C20.6307 13.7875 20.6796 13.7787 20.9511 13.6502C21.6788 13.3055 22.1103 12.4913 21.9754 11.7172C21.8712 11.1188 21.486 10.607 20.9511 10.3561C20.7005 10.2386 20.6054 10.2183 20.2523 10.2071C19.9236 10.1966 19.7936 10.2116 19.5888 10.284ZM10.4768 19.4408C9.95091 19.6089 9.58924 19.9255 9.35243 20.4253C9.2252 20.6937 9.21625 20.7438 9.21625 21.1858C9.21625 21.6286 9.22503 21.6775 9.35363 21.9489C9.60886 22.4874 10.1209 22.8679 10.7366 22.9763C11.4908 23.1091 12.3076 22.6716 12.6485 21.9521C12.7788 21.677 12.7874 21.6297 12.7874 21.1858C12.7874 20.7432 12.7785 20.694 12.6503 20.4235C12.2535 19.586 11.3294 19.1682 10.4768 19.4408Z"/>
</mask>
<path fill-rule="evenodd" clip-rule="evenodd" d="M10.7437 1.01992C10.3249 1.08646 9.82876 1.36776 9.583 1.67802C9.10056 2.28695 9.06278 3.2221 9.49514 3.85035C9.94351 4.50183 10.7733 4.79626 11.5127 4.56618C12.0499 4.39903 12.4113 4.08589 12.6512 3.57963C12.7784 3.31123 12.7874 3.26112 12.7874 2.81916C12.7874 2.37522 12.7788 2.3279 12.6485 2.05288C12.3092 1.33679 11.5025 0.899307 10.7437 1.01992ZM9.43138 5.67699C9.26573 5.72181 9.05383 5.79094 8.96051 5.83059C8.53378 6.01198 8.02539 6.46138 7.74461 6.90541C7.56928 7.18267 7.3909 7.7178 7.35863 8.06336L7.33324 8.33495L7.06158 8.36033C6.44137 8.41822 5.7937 8.73669 5.35816 9.19792C5.05031 9.52388 4.88027 9.80157 4.73377 10.2174L4.61253 10.5615V12.0025V13.4434L4.73356 13.7875C5.04769 14.6806 5.76669 15.3396 6.68244 15.5738C6.86491 15.6204 7.08576 15.6586 7.17319 15.6586H7.33221L7.35811 15.9359C7.44248 16.8391 8.02982 17.6945 8.84619 18.103C9.42359 18.3919 9.63231 18.4193 11.1352 18.4032C12.4343 18.3892 12.4454 18.3883 12.7778 18.2711C13.6822 17.9523 14.3392 17.2389 14.5741 16.3206C14.6208 16.1382 14.659 15.9174 14.659 15.83V15.671L14.9364 15.6451C15.8398 15.5608 16.6955 14.9736 17.1041 14.1575C17.3931 13.5802 17.4205 13.3716 17.4043 11.8691C17.3904 10.5684 17.3897 10.5598 17.2716 10.2248C16.9082 9.19457 15.9879 8.45797 14.942 8.36033L14.6704 8.33495L14.645 8.06336C14.5475 7.01961 13.8091 6.09465 12.7874 5.73627L12.4432 5.61557L11.0879 5.60551C9.87265 5.59652 9.70141 5.60391 9.43138 5.67699ZM9.66651 7.5183C9.40586 7.65444 9.21027 7.9163 9.16613 8.18815L9.14044 8.34635H10.5229H11.9053V9.24962V10.1529H9.52233H7.13933L6.90923 10.2731C6.74177 10.3605 6.64376 10.4504 6.54932 10.6029L6.4196 10.8126L6.4069 11.9581L6.39421 13.1036L6.51636 13.3374C6.65254 13.598 6.91448 13.7935 7.1864 13.8376L7.34464 13.8633V12.4812V11.0992H8.2468H9.14896L9.16109 13.5221L9.17323 15.945L9.30295 16.1547C9.39739 16.3074 9.49531 16.3972 9.66286 16.4847L9.89295 16.6049H11.0018H12.1107L12.3408 16.4847C12.5961 16.3513 12.783 16.0988 12.8327 15.8199L12.8615 15.6586H11.4799H10.0983V14.7553V13.852H12.4813H14.8643L15.0944 13.7319C15.2618 13.6444 15.3599 13.5546 15.4543 13.402L15.584 13.1923L15.5973 12.0479L15.6105 10.9035L15.4878 10.6687C15.351 10.4069 15.0897 10.2115 14.8172 10.1673L14.659 10.1416V11.5237V12.9057H13.7554H12.8519V10.5234V8.14109L12.7317 7.91105C12.6442 7.74365 12.5543 7.64566 12.4017 7.55125L12.192 7.42156L11.0462 7.40888L9.90035 7.39619L9.66651 7.5183ZM1.29957 10.2562C0.991678 10.3538 0.747724 10.5037 0.523992 10.7328C0.118993 11.1475 -0.077504 11.773 0.0282955 12.3107C0.144593 12.9017 0.526401 13.401 1.05256 13.6502C1.32405 13.7787 1.37288 13.7875 1.81587 13.7875C2.25796 13.7875 2.30808 13.7786 2.57656 13.6514C3.08297 13.4115 3.3962 13.0503 3.5634 12.5132C3.85459 11.5779 3.29728 10.5392 2.35662 10.2642C2.08018 10.1834 1.54215 10.1794 1.29957 10.2562ZM19.5888 10.284C18.0358 10.8326 17.9332 12.9439 19.4252 13.6505C19.6958 13.7787 19.745 13.7875 20.1877 13.7875C20.6307 13.7875 20.6796 13.7787 20.9511 13.6502C21.6788 13.3055 22.1103 12.4913 21.9754 11.7172C21.8712 11.1188 21.486 10.607 20.9511 10.3561C20.7005 10.2386 20.6054 10.2183 20.2523 10.2071C19.9236 10.1966 19.7936 10.2116 19.5888 10.284ZM10.4768 19.4408C9.95091 19.6089 9.58924 19.9255 9.35243 20.4253C9.2252 20.6937 9.21625 20.7438 9.21625 21.1858C9.21625 21.6286 9.22503 21.6775 9.35363 21.9489C9.60886 22.4874 10.1209 22.8679 10.7366 22.9763C11.4908 23.1091 12.3076 22.6716 12.6485 21.9521C12.7788 21.677 12.7874 21.6297 12.7874 21.1858C12.7874 20.7432 12.7785 20.694 12.6503 20.4235C12.2535 19.586 11.3294 19.1682 10.4768 19.4408Z" fill="#0E0E0E" stroke="white" stroke-width="0.6" mask="url(#path-1-inside-1_5109_10317)"/>
</svg>
